<mxfile host="app.diagrams.net" agent="Mozilla/5.0 (X11; Linux x86_64) AppleWebKit/537.36 (KHTML, like Gecko) Chrome/130.0.0.0 Safari/537.36" version="26.2.3">
  <diagram name="PÃ¡gina-1" id="JXPyLHuDdDuHZDX13k7h">
    <mxGraphModel dx="1710" dy="1218" grid="1" gridSize="10" guides="1" tooltips="1" connect="1" arrows="1" fold="1" page="1" pageScale="1" pageWidth="827" pageHeight="1169" math="0" shadow="0">
      <root>
        <mxCell id="0" />
        <mxCell id="1" parent="0" />
        <mxCell id="_2NTkBsCXPf4NS_J_TxI-1" value="" style="shape=image;verticalLabelPosition=bottom;labelBackgroundColor=default;verticalAlign=top;aspect=fixed;imageAspect=0;image=data:image/png,iVBORw0KGgoAAAANSUhEUgAAAy4AAAFyCAIAAACcAhlZAAAACXBIWXMAAA7EAAAOxAGVKw4bAAAgAElEQVR4nOzdd3xTVfsA8OeO7KQj3WnpLpSWveeLLAUUxS2CAi58fVXwJyqKuHlfF76IeyKCr3ugKCB7Q5lllQ7oTtOmSZtmJ/fe8/ujLSA2aVPSpuP5fvz4Cbc39zw5dz0559wTKj1jGHQGTodNIpUHOgrU6eGBhFoIDxWEUPugAx0AQgghhFD3xQY6AIQQ6qBybvhvoENAXVDvdY8FOgTUsWCrGEIINeH87R8FOgSEULfAOh22QMfQUp0oVNSR4YGEEAogvAShy1Deh+1rNBqtVttu0SCEEEIIdSvYQYkQQgghFDCYiiGEEEIIBQymYgghhBBCAYOpGEIIIYRQwGAqhhBCCCEUMJiKIYQQQggFDKZiqGMTxU19esWG3Rt+X9QHfxoCIYRQ19PR7m50dNSwSdLSX4vL6wIdCuoIlFfNWzyy7KVbn9qucwqBDgYhhBDyuzZLxajwuRMe7V+w7LFi5yVLmVFDlryTrKABgD/z7K+rf3df9i7VqF7XLgw+kldanuXPG29z5bYlKrR/rwfvTRwYK3LqqreuyV5zwMa3fal0QvpbK3qpNu3754d6FxM0c/noyLWb3j7c2bIZSqJSivRncqowD0MIIdQ1tXOrGH/gyL9HHgNGNe6zCXFN/J2Yftr90iaas/r5xttcuW1IHj3v8Xhh7b57d9qDhvR5ZuEg/YK9v1eS9ija5pYM6zFgtT7L1R6ltQliqa0TgoOCKcDffEAIIdQltTgVo8LnTlgw0rizJiQzXankjLtfzNp90k2Ain5g8r965ry0qNQNwPTr/38rJL9NyTrrAgCgJCEjX+81drSK1um2v5C1+6SbCIRz8UDz/N9yLXbc8KX/TZBSAFzNptu2bCtszFYoceJdg6bP0sSEEnOudvcbx/aecHnLZJpc33O5QMt6PTh42s2R4QpiySvf9u+jB89yAEAp1KOWDh4/SimigavU73/t0NYsJ/G83AM6VKmRmNbvqTM7wbzvzHJnKOUAqG+1eiPox7uydjsBGPW894YHfbrp7cOQfs+EBQnGIqk63qg76AgalM4cfv/AVyfdBCj1oPSH5iX207B8renA99kfbTQ5oP69I2KzCvme0YkxEteZvLffPl/gAAAgzurDReFXDRYf2n9JPD6XC8F9ez54b1LfcIYz1Wz/MnvtQRvvrVwqpH/Ph+5NGhAncutrdn11/PNdFjcAUGzadQP/dUtktIQCl/3UHyfe+VZvaj4jFcxmiyIoiAZoh6ZEhBBCqN35NGyfjhfrV+x8e8bvH/3ATljSM7q5N9NpKvcXO5aNW796m2zSkrQor+tzuw+9POLHJROycv7ahiMdO2DW3eITT254YdyG/22RjH+tb6rU23Z8XV82vt+tVzu3zln37Jg/vjsect0zqRE0AIDymj5TEnVfTv35+THr3l9lT7xOo/a63ANBV3WwNOy2R3qOzVQFsc7zh3XnmktARBUlby09lZseXL12/6ubqKlXh4sAQBEzd0Fs3Te77rrl9wffNqbcM+DaWKrhDRQTw1S/+/T2+fMPZsVkzJkgq/8DxXLHdhp7jo8O8V6e13IpRcy9ixKc3++aO3vDI+/U9n140LQYb+VSypj7Hk/g1++/944/FnxUm/7PQdfFUgBAhcTNvkt5dNmmmXesv+vJPGNmj6FRlLdoAACAlsSmatjiojLMwxBCCHVRPnVQCrm6PJ0AAMajBtPDQeEsVHjt+hJyyo7muAQCJVt0NTODI1jQeVlfEDgXgIj8NVGh1H1CxUdO78u2uwGKvz7yVZmyztst3Nf1wb714Ctb61/yRTv01qnKUAb0AghOQZDLYzJD7UWWmj+OfLq+MUwPyz3hTT+8uN94Y/LV85MfieRP/5q98uuqGq/JmMshCDzndPEOJ7icPCNmaACwat+a09BJ5zxdcbIuLjqSgnICAED4gmyDmQA4TKfPcaMiZTTYCQBQlP1oafbs1FERpmaC9Fwu3SOsJ1/1wUE7B2DOK92nS+mTxvxWwXkqF+LUaaD/eJvJzIH5ePF+XWJ6MgPlHPC8W2DDk0NTrOaKqrL3l5Z6D0Y5acWWxVeJiL1874rHN5bjSDGEEEJdlE+pGCEgNL4iFEU116pBeCLUJx1Ci9ZvEs1QhG/Mz1zW81ut/l2fiYub8nRm32QREACxKIhqyBGsm49/n9hnxKPDJ8QplGA5/e6B734wcZ6Xe0bMNVu/PLL1S5D1SFzw4qB557e+dcD3xwYYxag5/WaOCpIDIUAr1dSei9VJhIb9Ihx9Z+M/66uh/g+O6h2H+t41VnHM5/IasbQopMf/fRjlBgCgRDL+FLlQcBPlMizNCKSxEYvwPDAiCgBIXflnbytnTct47DZFVDDoDuS88XZhsefM3LJl4YgtQEvibnxuzYu3HbtrTR42jCGEEOqKfErFKIZiKAACwFAUIfX5jsATYGkGwA0ALM0IgnBhlBdN0fXr0xfX95XAE4ppzOLEiuSxyrp9ldV2P61PifsuHJKhPfjuIxUWAZhBAxe9zjT8yWU59d6BU+8BAKUcP/ThZ3um/nrorMvz8qaJUxNu7237db3eRMBeWrrjdOadSXLmgIkIggA001AYxbKkiWFsl1CNzvzXMPtbjx84YiLAhN3/4VCJt9Uv4M/sqJA/rIlxN4618rFc4AS3sWTF/BMnW5gKcQJ/YfNAMQzw7oZ0vGJ/zpv7cwCACY55ePmAG/oVr2zuiU7BWak18CqVslVZPEIIIdTx+TZWrFfcgHQxzUriJ0WHlpn0HACQmtNGW9+EoRliVq7sMyNGmmusbLxp073jBvYS04y4x8SokIb1AQCAcA4rhKaFKKQMK6YZGgCAYmhWzLBiigKgxQwrrr+hE+OpGtfgpBF9pSKptMftg2ct6qH2ltJ5Xb+JcilGRFEszTBASeRpV4UpGm76VMTcCc99kh6joAAoVkxTQn0Ln6flnvC8bPCsPneMVKlEdHBa4uR+fOF5Gw8gVNUWmEOvujpEJWI1oxKGKEx5xV4fRmBphqZELAUUEzkwpndQS5MTvqB0jxAxOLphfV/LFcqM+aLICaOUUppSJCY++u+h1/bwVrRQZiyAiAlXBanETFjf+BFRdWfP8wBAx6W9vnbMLUksBUCLGJYmfItyO4k6VF5jMGAHJUIIoS7Kt7FiBXWiuVctGauidbotL+RXCgAA7oMnv/5y8A0rp09V8TVHCr97udDUeN8Uzlmk941fMkpJ63TbGtcHACD27I/OZrw45tm7RTQlaN/f/M4n5viFU+fPVtSnhr2/uWkyEMOa7cvfqnbszv7fmkHTl0+bGgqW/Iqdz5zId3gL0tv6TZRrOvHO8eTnBy3aM9xdZTy6wWxpyEtI9S+n9g4YeP/mPhKGuKuMR1/LKnB7We4JX5j/5vuiB2aPWfWESKitO7Tu0GdZbgAAZ9Wa5QUPPTDi8zkil86wecXxrQYC4DHLqdtz5rO+A+d/cO3/uRz528vKWvDwYQPBvGuX9bY5yoZ/+lgusWg/fVP5z/vGfLlQJJjqsn45ubPMaypsqfj0raCH7h39+b9EnN6446Oj68sJAAjlxWt+C5v/0tSZcoq47HnbTrx9ogX5FSViGVBEaELZEgPXLjOAIIQQQu2KSs8Y5uXPGo1Gq9UCeJqyFaG2RSl7z1q6cO6YBOfPi25485TXQXkIIYRQ59PRfvgIob8glpy1T81fG+gwEEIIoTbS4lYxhBBCCCHkbz4N20etodTIpq4artTI8HWTrxFCCKHujAmPiPXyZ5VKZTab2y2arid6aNjwxb2PvV8wfHFvi9aBry97XbCuPNC7CCGEEAok7KBsW1NXDd+95IRFa1dqZGOX9cPXl722aD3PEIcQQgh1A5iKIYQQQggFDI4VQwghhBAKGEzFEEIIIYQCBlMxhBBCCKGAwVQMIYQQQihgMBVDCCGEEAoYTMUQQgghhAIGUzGEEEIIoYDBVAwhhBBCKGA6bComCs64e+jAXqKWLkcIIYQQ6nw6aCpGKfrGxzi0+fnuli33jSgucdS8jHh1B/3wfsbK+0xKHZEkogIdCLpCiow+L68cNSm2exy3CCHUXbCBDqBJsrDUgSLdZp1FaNnyv6BCxgwY2pet/PPIiXMkeGTfIf1ltTuPHMnhGv8c1XdSsHHz6RLjJVthQm97fVTIVxs/Psr7FCmlTHhsZeLZZ3b9oSM+vbHdMAlJs+ekWL+tzCp0Nx9ia+uhrbbTYVDq5MUr+qezAECqft+1+CtjO38wJjrx/vkRpz/cu7Xc29HfQTR7XrSuPiUxmuvn9ZuSKSlY/eerf9pbccq1olwmKePll3rFMg3/FCrzX1l06lznOq47zPkY8PPIt3i67n0BdTAdMRWjQwbFhenL95XyLVt+GUYRKjLpbNJgMSVTJvZw15oZS83Ft5DayqNfVF7+JolKE2ItqPD5JkfHBmlclq2Gjnu+8efOPHf/Wd7Bt+iztbYe2mo7HQapKXzj3mKKVlyzZFzPMq/fBdoGrytasaCo3YttpWbPC9/rk1KPHPTUXcHn/yg8okmyap2tO+VasR+lcUHqnOzH3yw2EQAAQgS+c+Vh0IHOx4CfR77F03XvC6iD6XipGBUUmZZJSn+pcpAWLb8cLVOGuM25DnWwLKhPFF1QC0PAUksAACTK+DGJiUlyES04yipytpUbHcBk9H/zmeT6vsqBy2fcCiBUn3v1sRO5PFCK0Imz+k4ZGqIWcRXH8j7/uOCcHQCAVkffdF+f8RlySq/745hYVVWp4wHA4/oeP2lI5Iz7+03MlFNVFRtOSKfHlz35n0ITYUc8NmVa0a4Xfq4TAIInjH59jG7Jy+eqCVDy0PGz+04ZqFIyguHMubWf5uVavG0+7qbxL90SzAAIlfnLFp0qaLh/MEMfnXozKcqRqtN6KBU1ZV++ffKYkXirh6bL9Xk7dGjUjff3m5gurjl6Pi8qNfTPjSt2e+toFsfGz7wnfWiCmGUoZ1n5N+8e219JAJquH0Nw0qLXEswHnfEDJQW7qiV9Y1Nrzr66olhPPJYbPGH06xNsGwtlfdODo2TW3Z8c/Dbb8w2eEM7Ng0geHeHQarlLV/O03z3E70nT9dmKz+vpOPH0ef0Uv+fzosl4PNenB1QQXbvmuWOnufhFN1nzKpp/R9P73edy6egeKlNJXo2rhQkYO2zBlOllu5//0SQABE8c/frohvPXJ1SI5/3ry/7ycj56Oh78c774bb97Pm49HOc+XTeqPcTTiuuYv+4LqFvqcKkYGz4sVlFYeLyKtGz534hlSoVTX2pTjY1JC7eePyjuY7dbXQAgipmQnsAVHf6i2kbJk67vmznYtGevhc85+cS8U7IRQ9+YUvvvl/IrhMZvvZRk2L0jptJn3120t5yJmPnMsNvHaf+z0UYo2Zh7Bw8zn1j2z7IqmebuZwe7cwsMguf1PcVJSUfdO3Ss6/RrDxVXSDVzlg62HM+xEABGGRsNur1WAQCAjo5TOiostQSAkg6/f/jVjlPLF5ZVQtC0p8bNm65f8nWN59sDKV+344HfqIhrxryQaa688L2OVmiiabq45vcPT1VD8I0vjpsxtjB7ndlzPXgo1+ftyMfNHzJYf/S5Byu5QQOW3O84pOW87UdK/o95/RLP7n3ylRobIx89b/CAPoqDlRbBQ/3Q0aoom/HXNaeV8imTag+++YHr2ZcjE9hiPeepXDpKo6SZutzv9/9cR6feOf7JaTEbThSZvB5flFoVI7HsuPRbssfjxEP8njbtoT59/7yejhMPnxf8FL/H88LbcdtEfXokFO09BwBM76Bom1nrfT9BM8ebD+VSotgesoj0USvHCpzNlr/r9Je/6Ou8ZdTKHhqi3VdfUXRMD6VDa671vXHE8/71bX95PB89Hg9+Ol/8tt89xelh+z5eN8BDPD5fx/x1X0DdVAcbAUxHxKQlO85nGd0tW/53VKhc4bBbDHZ7iApyKmzBcrHJZhUA5OrYBEfJgWobB+B2Ox2ECPX9DQLnFkKjFUJFnc7Ju908xxECQMkjh/dz7Py+qNDEu2oM5yqJWMxQAJQiYnC6ddevZVo74WqMJUaoLDPzntf3GKc8Ykhv286fiktthKsxFhtIZX3zuEipCbNp6y8KlChaI66q335Q9Jh+1q0/llc6AVxOk0UQ+GZOZ8ILnJuERcvNFZaLp75IqQm3Hd6srXYDcI6aOiJ4rwdP5fq6ndCoYT1NW3/WVbuEuhKLlbJovTaxAC0NV1M8LY2JlStp+95Pdn+w1Vv9KDRKRVlNKS9RhziLC51UqCzIaDMInsul2GiNuGTv+Zw6AiCY69y8S/CaGwIAMDGqyFqz9pIvtR73u6f4PfFUn75+Xk/7y8Pn9Vf8Hs8Lr8ft3+uzWUqNSqmr0zXXQuX9ePOhXOLK+mDzose3Ln1mx1vf1sbcMGh6L68XTYkqNsxaWj+ej5LExYl1pZZW9Gd63L++7i8P56PH48FP54vf9runOD1t38frhsd4fLyO+eu+gLqrDtUqRoljRkTTZ86Wm1q2vCmiUJnYVGN115z+/BDhiPoqqdNo5wAotULJKoNvH5oCQIjg0uvOZlsbrw1MtEZWXWK59MpCRwdp+Lrd9Y1wtCI6UqjcYRMAmOigaFfdtgvLI7iKcjsBYDys7wkdHRTD1+3SXdiOS6t1EQAmShVNLAcatqOMjeYqNjgIABMbHCsOTX556nQgIAjm4sL//Wlq/hJPSWNi2Mp91ouNYuGqKMZyvLHcmChBt9ne+Nem6sFDub5uh9EER5tMpSYCAEyUKrzGXOH9QszXbP3mfPjV6Q+MVYQHU9WHT779bpGW91Q/dHSsslZrcdIKTYT1fCVRDlfKK0sqec/l0kpNNFe+sX7oN6lcv/Of65uvzbA4lbiisPKS/erpOPEUvyee6tPXz+tpf3n6vB6PW1/j93ReeDtum6jP5tAxcUq71uytXQoAmjnefCqXOOrsDgAAMNYWn7g1LlThtdzooBjBsltPAADYoHgNV1HezJCKpnjev63ZX02cj56OB9ZP54vH4xDAt/r3dNx62r5v1w3v8fhwHfN4/Pt4X0DdVUdKxZjY2JRIU/4WM9+y5U2h5GEyd43WRYBwAlBihZq15dgJgDhYymqL9/xc0cR1kVHERkPlgb+cIaJIZYjBpK/v7JcFxYVaC8oFABBHKYP1hsr65cFBcSrr8QriZX1PxNGqUEOt/uJ2LAcrBABgIpXqGou+vs1bFRQXZDlWTgBAHqWQ5556etl5o0/XdUahiXLpKlwXx0BEq8JrzDpnfZzKmGBr3oVm+abqwVO5vm5HGa2UG7R6AQComJQQUWVBcxdios86/W7WaQBgNT0XL0voH16srSRN1w8ljtaIK/dZSFCPKLdln42KjlXWlFucACoP5VIyZUyINce355uo6FhFbbnl0if3PO/3puP3tGlP9enr5/W0vzx9Xn/F7+m88HrcNlGfzaDEmlhx5eHm25m8Hm8tL5eKGt3nWnnp6s21PABIFJEqa7H31lwJKxHJ4zRstpbtOSWlv8LyWwuGtf2tWJGn/dua/dXU+ejpePBUb76eL/7a757K9bx9X64b3uPx5Trmr/sC6q46TgclJYsfGeE6Xqqzt2x501ilWmQzNJ5TtEwZ7Kp/fFJwciRIGaKkgWaD+qYOnRqtuNBMTElDQwWBZsUihhXR9YsFJ8epQ9KiWFauHHRLSmpp2ZH6y4FAICQoLpimpcohMxJTXGatkXhb3xOBkNDgpDCaliqHzkhMspgrzA3lukOCUyMZRq4adltKfF7ZMQMBAM7m5iNCU9U0xYgTJw166tGkGK/7jmJokYgRq4M0cltlNSUS0QwFAFSYRinSmasaRkwERXIW7YURxU3Vg4dyfd4OCISOixnTNzRteMYtY2S8wISFsJ4b6inNDVd99ELPOAkAxaiTg0KtdWW1xGP90IrYSEdFBUdFqyKq6nREFB0jqiq38J7LpaNUUU5LRY0vt0lKFBLKCjQtFTON9elpv3uM39OmPdWnr5/X03Hi6fP6KX6P54W347ap+vRYQQzNihiRJKhHNFdZ5WabW9/b8eZLuSREPfKaxH7hjFgVNGJmz15lpYe03uqBzz//cxYzcek1b708sK9KoM0tGNb2d573b2v2V1Pno8fj30/ni7/2u6dyPV2XfLtueI/Hp+uYv+4LqJtiwiNivfxZpVKZzeb2CEScltwv2ZKzRX9Z662n5U2jFZphoVxOub4OAIBSqpMGsoYDejMHQq3VERKVPj6p55Aotchaur/CcGH8FHE7lVFTZ/a95eb06SOZk1uqagjwVXU1kfE3ze1367TYGFPZlx/nn7cDAHB6G5eecufdGZMGy021TApdvW670QYe1/eEq7ZDesqts3pPGqKwmNgkoern3bVOAKHabAjvcdO8frdM00Tqi1Z9dr7EAQDA6UzG6MQ77ut36/WJvSW1W74rOOPlEk8ppjw3dcl96ddPiQpn5f2m9Lp+Rmp06blD5VTqhN5p1ec3nbQTAFlG8g0xtb9vNZiJx3rwUC7j63ac1U5pv6SpU+J7Sat/+U4ffnXmRIV+S7bH4atWo1s9PH323Zk3zkgdEWPf/vnJPRU8eKgfShE5eYY094ey2t4po0G76ZR45E0Rpq3nTtd4LFeSmXJDTO367UarDxdGweyWD5vR987b0m9oqE/iab97it8Dj/Xp6+f1dJzIPHxeP8Xv8bzwetw2UZ+e6mfIw9e+8kjvG26IT5KziaN7XX99LHO88EyNx3i8Hm8tLxdsZXWO1OTb5/S78ZroSEPpF58UFHr/Tii4Sg4Xbfw1f+OW8kpN0tXB1et21vj6wJyX/dua/dXU+ejpePDX+eKn/e4xTk/b9+m60Uw8vlzHXH66L6DuikrPGOblzxqNRqvVtn0YjKrXzHTFkexjOS7SkuVdCp0+d/L95MiTq6s73XRFCKG/ohgRTQNQsqDJj44albv3ue9r8bxGCHnVQcaK8ebctYd8WN6VUJK4OHHl/sDPdogQukK0Jm3pa5lJNAguR8mhnE9+wzwMIdSsDtIqhhBCCCHUHXWcYft+o9TIpq4artTIOsjrQOkIn/1K6qejxdPWOsK+6Mj10910hH3dEY6HjvAZO2O9oc6lwwzb95PooWHDF/c+9n7B8MW9LVpHwF8XrCvHemhF/QQqftxfHbN+upuOdjzoDhnHLuvX/sdDR6sHPI9QG+lqHZRTVw3fveSERWtXamRjl/UL+GuLTzOJd9168LV+AhU/7q+OWT/dTUc7HgY+lHbs/fz2Px46Wj3geYTaSFdLxRBCCCGEOpEuOFYMIYQQQqizwFQMIYQQQihgMBVDCCGEEAoYTMUQQgghhAIGUzGEEEIIoYDBVAwhhBBCKGAwFUMIIYQQChhMxRBCCCGEAgZTMYQChJJqBo4dGld/DlKhmSNGp6p8PiFFcVOfXrFh94bfF/Vh/R4hQgihttfdUjE6OmrE7ITYoEDH0ZxAxdlZ6qfTo9UDH/xg1bevXJ8RRNUvkcSOfuyTL79eOiFe7MN2lFfNWzyy7M1bZ0x/8xTXJpEihBBqW502FaPC50586b8Jkr8uZUYNee7Iba8du+21YzfPuVb093epRvW6dmG/oelt87nFcbP2XD0pjbri9ds4To+aKZcZOOCpLUN6/r1eA49WDfhx6rwtmRopAFDqh8bcuSySCXRQHjE9Zr763PWm1Xff/MTqMzwAABDdn8tvv3XZod6PvL1goKKlhxAlUSlF+sKcKqfgcxC0OGJM3wn3poR13HpCCKHuoIv1afAHjvx75DFgVOM+mxDXxN+J6afdL22iOavvN652Fag4O0v9NIm4ndKolBG52h18oENphnTYrXOSDr3+xKZCx1+W89WH337ltxEf3TH1y+M/VJIWbIlYauuE4KBgCnz8pViJKuma1Bi33dmSUhBCnU8Y515Zlj/IZmnFe4/KlY/GpRnYjvi9u0vqMKkYFT53woKRxp01IZnpSiVn3P1i1u6TbgJU9AOT/9Uz56VFpW4Apl///1sh+W1K1lkXAAAlCRn5eq+xo1W0Trf9hazdJ91EIJyLB5rn/5ZLsOOGL/1vgpQC4Go23bZlW2HjPYgSJ941aPosTUwoMedqd79xbO8Jl5f7E6VQj1o6ePwopYgGrlK//7VDW7OcEJo0b+PQXvU9S9/dOhkA3Ppfr9+xV0eAlvV6cPC0myPDFcSSV77t30cPnuUoz+v7J05a+Y9VV/fdvvmDL8wCAChib1830PnMhl+yeKClqfcOvu72qEiVUJtd8uey48eLBW/1I1IOXDx86pQQsdFwaIMDoLluMFGfxDEvpMT2YCjCW4+U7F+aX2EEoFUDvh+l/nTLtg08ABW56B+TQnO+XVJFBvS+8RVVVR4Tmeos3caFjg1ld57a/I7BRYCKjBj4fHr6cIWIcxq2ntu/rMRgg/r3Tk6qynGHxPeSSx3GE8+eOHOaBwAggm6XOWZ6hGSn7pKK8LlcUIf1X9o7faiUcbuqf8vd93alhfdWLhUW1v/5jN6jFGKXo+r3vH1vaE0uz/UAAMAkDcyQH1u739TE7nPn7d9rmD44Q/RDpauZigYAAMFstiiCgmgA3/JPnredzT9UoRp4i7yJXdi797hk/fbfq3kAYML63xdl+PJMhSIqY0JcRAhDca6ao/nHj1sFWh43MTkxTiaRgL2w5OSWSjMPAKx6aGrmgGAx7zAcr+Iygozf5WpdjCozMXOYWsHyloLSU7v01o6eLiPU2bU6DwOAQTbLEl3x/8Wl+jck5EmHScUAAOh4sf75nW/rIPyOsQ8v6Zl/5+kKr60zdJrKvWDHsmeo+Plj71mSlnfnGZ3n9bndh14ecRgUPWavT7t0uXTsgFl3i/c8vuGjPBJz27C7X+tbeeORfIenzYDymj5TEnWfTD1ZYqXDrht443Ua9eFCQ03R6rEllDj2jk2gckYAACAASURBVI3pVfdv23aOABDBRQBANr7frVc7f52z7qSOTX503NxnUs/PPav3vL5/4hSspzbXTr5ao/4yt1oAydC4no7yr47zACAbP2DmjcKmf60/VsIm/XP0nS+mld2TWy14LFdx9YAbhlt+uWPnCb20zxNjRlLV3nYJUJLkBb2C9xz89u1at0ie+nSf1Kvkup9s3nJbibVg8dmi58ZlVu77c2HMtG96xHxkKHaKEh7vl1Rz5rcxOqtcPeSzIaNmGtZ/ZiUAABTbg9Ldtf+oiQlfMHLq/8UV319sBQCKcu8tr1oYGx+mM3iN0Vu5LlHCUwN62k//Pl5nlYcO+nDw2JnmjWttHsslooTFA3pyeZsmaeuk6kHvDBg7y/T7KivxVg+UKlhhMdY2nWoJJkMtmxIko8DbF4IGtCQ2VcMW7y/zObHhbJV5QKlULX4DEzEsXpp7cke2g0hlCrFLAADiNucWH95udjBBvW5OT06qzi7gmfiEvplC3reHKixM2OiMwUFOIwAT06P/UKbw5yPlZnGPaZl9+luyjtqxPQ6htlSfh43pOdCnxq0wzr3u/Kkwzt1mcaEmdKixYkKuLk8nAAjGowZTXFB4c3mikFN2NMclcM6SLbqauOAI7+sLAufiORf56x2AUvcJFR85vy/b7rI7ir8+8tWbZTVeB+oITkGQy2MyQyMiGdMfRz59rtAgAADhXTznEgiAwPGci+dcQn1aaN968JUZh06U8YRzFu3QW2OUoYy39f0UJ6nZWlqWHJcRSwGwKZOinDtKi10AQEf2V8PBoiO5LrfdVrCuzJgaFiv1Vm5oioocLz1VygkOy+kNVdbmbqCEdxI2JigiQyGXOM69mLXbax4GAMTJ84LA2QXOxhMnz7E0QwOAu+iprT8+W2F2EMFoLMlyKeJljZ+XcKerK00AwBuPmNxRMkXDUUxR1uqC/cqUq2XNxOilXEYZ1ZeU/1plcQMx1eZvtoUPDWk8rpoql1FG9gHtz+XGWp7TVedvsYX2D2abqweKooAQD9VCiABUs2PFlJNWHNhy/ND6r2c6Plm+sbztO5QFR61bkRwZEcaCw26pq2+HdJtKzA4OwGk2VAoSBUsBFZwcwudpdXUCCG7j8apaAQCo4J5qqqBCWysA79CetSgTgn15NAEh1Gqt6GSsZdgCiWxZdEJbxIOa1KFaxQgBofEVoahm70eEJ0L9/Uxo0fpNohmK8I23RZf1/Far9/Wtm49/n9hnxKPDJ8QplGA5/e6B734weem0Y+Lipjyd2TdZBARALAqiSlsTpe9xksqy7NN9Bl2l2PNjUJ8R7tP/Z6xvOWFEtHCh+5YnAkWz3oZtUzQNF5MGXhCayd6Jq/D1E8GPxA95NVWlEUNZ5ZEnss/mtSJToFST00c+FB2qAkKACZJQGy/uXtK4PWHPyW+uA4DG7xSEq/itasTCmKB9vhfYWC4tFqe8Ni6uvgtcxHCH4ULBTZTLUjRLSGOjlMAREFEUNFMPhBDweLhS1KU17olly8IRW4CWxN343JoXbzt215q8Nu7xI7UHzpzoG5c6fWCvWn3ejhJdrUDJgxNGaKIjRZQAbDDjrAYASiRjXTUNX6iJ3e0mAECJ5WJZQvr4dAAAoCiotYgowGFqCHU8BlY0JyEdWpXDoVbrUKkYxVAMBUAAGIoiDc0GAk+ApRkANwCwNCMIwoXRUzRF169PX1zfVwJPKKbxtihWJI9V1u2rrLZ7foPLcuq9A6feAwBKOX7ow8/2TP310FlP43oocd+FQzK0B999pMIiADNo4KLXW/m8ms9xCvYzmwxTpmuiykJ6mstXn2lIA3i3QEsb0ymGoonAebuJE+HSNhqGbr4ZlS/RHXlCdwQAGHHCS6NH3x2W/6yeB0J4oNmGLdEimnBe91dwzNAXIy1P7d2820WAilo8bkKLmrqAP6YtUvZNiBdIQ3rsY7lABJcz/+kdBw618GgiAkddSGZplgJ3w/Y91AMAEHOdVZkQIq4/pi9DB4eFcOa65rvvwjj3yrIzg16eDC/DusaF/hxs2zjJBiuqfyW4jNnns06Whg7tNXBilOmnqqB/9Iyz5x/6rtYp0BGTBycBABDOwYnkLIATAEDMsPV5qd1tOZqzP6uZBlKEkL8xhPA+NlNgEtb+OlQHJd0rbkC6mGYl8ZOiQ8tMeg4ASM1po61vwtAMMStX9pkRI801VjamDnTvuIG9xDQj7jExKqRhfQAAIJzDCqFpIQopw4rr+7uAYmhWzLBiigKgxQwrphkGAIjxVI1rcNKIvlKRVNrj9sGzFvVQe7tfUBFzJzz3SXqMggKgWDFNCeRCagiEczok6niJSMywYpqqL1ZEUSzNMEBJ5GlXhf1lmoIm1vdXnAAA5p2lxUlxk26ItG4tLW+oHKHqhBGGJQ5ME7NSWcr0OHWBodzhrdyac3VU/7jMOIaWKHpfHSFv5pymlX2/mjT1viARDcDQjIgS6pvyBHv1aVfk9B7hwbQoISbtH6zhpNlb/DTNMBQtpikARhORMEjc0msJZzq3kcSOaYzT13J5S9UpOnZGdLCcolSq9FdGjJ+p9FY0b6k6BZobNKHBNBsVljpRXpNt4rzUAwAAX3jsjG3gqJHBTWxYlDZidFj+0TPNDNQI49yris/+fUzuIJtlVfHZKx3nwZud7jBVsBgAaGWv8BAGAChZhELCAgictdrJ0xQFtFhKOw02pwCUIiRKU5+OElOhSZQWE6mkgGKD+0QE0wBATHkGundcbBhDAVASaVBIh/oKiFCXVCiWAsB1dS0ZOosCrENdEoWCOtHcq5aMVdE63ZYX8isFAAD3wZNffzn4hpXTp6r4miOF371caLrQTXTOIr1v/JJRSlqn29a4PgAAsWd/dDbjxTHP3i2iKUH7/uZ3PjHHL5w6f3bDqKLe39w0GYhhzfblb1U7dmf/b82g6cunTQ0FS37FzmdOeBmzD0Cqfzm1d8DA+zf3kTDEXWU8+lpWwYX7nlu/58PqWc9f97KSptzlX4/fe9zmPPHO8eTnBy3aM9xdZTy6wWy5NA9oYn06wT9xAgAQo/bE8QG3jrZt+6D2Qt3Ytx3/JmXwdR9Ov1kl1J4o/uWF/GoBADyWa/0ze93A4dd9P+Mmg+HQRlNzY8UES/7bRVFLhs38F0sJvO1k+YFnDQIAAF/+9vGTz2VO3pYudtp0P57Y+7ODAHjMcmoqDr+uHrNk3F2v8rZT5ecKWzCGvfFT1/6hrZvfK7jhnz6WS9xFrx4Pfq73tF39xbzLuL3w4O8Wb0UTd/Hr2aHP9Z66ra/Yba9af3r3V1birR4AABxZP64tWfHY4kn5L2wudl7cGB026OFnbxCtf3FDVTMfd2VZfprTni+RLXxwzdoHbY8/8OEBA6fm3KuKz6Y57Z+W5N6SlOnrV+GLhPLy3NKemXcOcFnczgqz3qwAoGQpSX37yVmBcBZT8c4qG+Hch7VR4zJH9+G4ulrtOWt9syVXVHwyMjVj5tBMzllzymQSpADAa0uOH0zofe2gdAVNHPbKfXmnazlsIUOoLX0UoXm1/Px8vXZdcHigY0HNoNIzhnn5s0aj0Wp9nLGolYGEz53waP+CZY9demtCqIuiwwb/899P3BFb8umTT68+wwNQ0Vc/tnLxWNj1/pP/3lzU3EQWOWeyAGBMz4HGkH6zli6cOybB+fOiG948Fcy59+QdA4DFsckd4PorjxoyO7j0s7xKnLoCofbGEHIq5xD4/hAlan8dqlUMoe5CMBx578G5vwwaHlvX0DrkLD+w8oFP9xfUtTxtMbAisOSsfWr+2kuWLI5NDuhXYZk8VMnVVbt4EIX2jwyqrq7rjPMFI9Tp8RR1VK4cZLOsLMuflZgR6HCQNx2mVQwh5A8Xvgr39npqtxVKFZ4xNT5KLaJBcFUbCrYWaWswF0MoIMIam8kDczVALdahhu2jrkCpkU1dNVypkeHrJl+3tdYPEfMLYq4+/d3RbR8e3PLhoV0/nMc8DKHAudAviVO2dnBMeESslz+rVCqz2dxu0aDOLnpo2PDFvY+9XzB8cW+L1oGvL3tdsK685ZXJAIl1u+oYn0cRPKwvB4D3vJ7aCKHuYJTVFON2jbWY/gxS2+lWzqWE2hp2UCJ/mrpq+O4lJyxau1IjG7usH76+7LVF62UmuItkgnBzrf4uow6Ampraz9eGpfpB/dglgRAKa3yw2ss6+OPfAYepGEIdSCTnmmWsur2mKpjnAKBYLL0noZdWJPFpI5iKIYQuCOPczf40eL5ENi8hHbOxQMEnKBHqEHo5bHONumtNBhEhBOCIXLUqLHq7KtTXJjGmdb86gRDqogysyMsTlBeazVYVn8VsLFACn4phwxvq5sZYTPMMupFWEwXAU9SGIPUXYTEnZIrWba1+cu36ibYRQsg7Ayual5Ben43tyTu2ODZ5fVBYgJ/+6X4Cn4oh1D2JCJluqp5jqOzptAGAlWZ+DIn4Miyq3MfuyEuFce5Xy88DwEcRGr8FihDq0uqzsU9LctMdtlfLz8816O6L74XNY+0JUzGE2lswz91RUzXLWBnBuQFAJxKvVUd9FxJpZlr/fNOlw0HOSuXrg8L8Fi5CqKszsKJbkjKvqzO8Wn4+3WHDzsp2hqkYQu0n3uWYY6y8sVYvEwQAyJHKvwiL+SNIzbW2O+DvA3LrH4bC/gWEkE94iloXHL5HEYxDx9ofpmIItYdBNstcY8WEuloGiACwSxmyKiz6gCKo1Rv0lIThpRMh1GqXDh3DX0xqN5iKIdSGGCCT6mrmGXT97RYAcFL0L8Hhq8Kiz0laP/P+ZUkYZmAIIT+qz8b25B3zPv8F8iNMxRBqE3KBv7m2+i6jrofLCQA1DPuNOvKr0KgrzJnq5wy71CCbpf5n5v6uUCz9KEKDz0MhhFBHhqkYQn4WxblmGytvq9EH8RwAFImlq8OifwkJd1Dt/ZOvSS7Hq+Xn65+pxMYzhFBL1M80BgBH5cpAx9JddLdUjI6OGjZJWvprcXldoENBXU+6wzbXoJtW1zBN62G56otWTdPqRcvn0GcIua7OMF+vTXI5AGCQzfJF8dm5OA4XIdTIy0T8+RLZo3Fp7R9S99TNUjFKNarXtQuDj+SVlme14PYojpu1LaNy3uYt+V1oAnNKNmr44IczI3uIBX1l2ec7j683cIGOqT3JFJMfzHz67vCw7NPX3FOsqz8MmOCFP496IKWxF4+3rbpr5zvHeRXP61uQuFAN07RWjLDWXZimdVVYzMnWTtPqF/XPQ60LDgeAMM79RfFZ7KRECNWr/6pW32T+d9iI3s66WSpGTD/tfmkTzVn92EzRuVDhvYe8kOZc/vNvW03sgKEj/zOl9/mvT57pJvVBR8cs+ywj/WThN1uVM+sshsaPTSmUaZHGVyYf/tFAAAAIKBzuz0ry8iXyF2ISvWxQTMh0U/Vcgy7VaQcAC838GBrxpTrK11+NbGsGVjQ3Ib3+RaBjQQi1n2Z/gPKsVI4TugZc90nF2HHDl/43QUoBcDWbbtuyrbC+oYsKnzthwaiaPXUh6akKpduw68VDe065ITRp3sahvcQAAPDdrZMBwK3/9fode3Uem8coReaM55bMHNVDQhNX5dFfX31xbVYNATpp/lcr01bdsuhPJwDbb+Fnb4e8f80LB4X+D/74fGJ2vrRfinHXDnva6AzJnhUL3s82E6Ajhj64ZP4tQ2MVXE3u9v/9+/X1Z23+qwYqJTrEWLB3i9HNg/tIdtGZ/vEZcuqMhQAA0BET/rPm8VGVa++75+tc3h/FSZXXP9nnocmqUDFN2ywblx97Yb2NB1BMG7TtnrrZtxXkC0CF9fh4Y+yuGQfXaMW3fTz2phpdbXpkyLGyw/LwKf0d799z7KcyArR0zMN9n5mpDqms/OqIfE5U8cSHy80NZdB9Hhj+wX2SLY/veXF3M+17tJo6tWzf8weEGR+lFh+1XviITJIq0VD3aRXv5AAAot2uT0tyU5z2TLttZWSckWniNAlpnKY1vHGa1jXqqO9DI81066dpbVN4qUWoa/v7Mz3e4WM9HUf3ScW43YdeHnEYFD1mr7+8+5vuIdLN27FJR2vmX/XgUyln55zV1xStHltCiWPv2Jhedf+2becIABFcXropqdBrHroncd+TU97LsYo0059YOP0fMYfXab20NlES7W9LP9r8zOrZVQ8/9MT4z9dcO+ST7O0u5fgFT1xT+97dE3fp5AMWfPDyktuy53xR6nE7dOLjU+fPVlwcD+4q/3r83uOekzeGpjhBAIpRsMQmCBxQzIWzkLit+oqqiiqTwz8dspTmpswlGcb7px08YabibshcNi48/o+SQoGKT1GQIm2ZAADAJKoSrNbCKgKMIjWeO/HRmeUh7LY7nQseyK5dO3p0b+qnMtDc0u+1ibbnbtmyyx35wpd99X9aL/mAlExCagprT5Y1nzxyZ7RfAQCrTkvgCs+7LtRqUKpKE6f+YGcs5+KMv5wKf2RLqMsFABIizDRWvhcRe+lGElyOOQbdDFN1/TStZ6SKL8KiN1zBNK0IIdR2sLex4+s+qRgIAucCEJG/ZxlCbmWeTgAQKg9WW25TqRnQC4R38QACARA4nvOWhDXgXS5BHp3SJ91SWKb7fdmTvzX3BuJ0OAWe2J12u5M4HQ5WLGEAwLL12du21q/hOLnjcO3UuCgGPKdiQtHy359e3mx0l6ESBl61epDpyf9V/zWk2oNvzjvo68a8iNBIKY4KS1JoSuwV607OWVe/mElMkWpzrS4AAAhKUqhLq4t4oEIUicHm33KJ+gaJ8YzJQEljwhylWgK05B9TQvK+ObG9nBdoc5EJQs9d2sPMH3rnwPXv+BAVFaJMDrVuK7q4U00bs6fsoQFgkCC8euyw2OW68Kc7jZWfhcfUP/w42GaeZ9BdZW6YpnWnMmRVWPTBK5imFSGE/KXlz/SgjqYbpWKeEUIa7uwCIRTVqsYNYvrzrTcS/3n9o6/MitOEQNned59+/fsCV/NvvBwbN/Hep+f/I0UJhIAoKIz+sxXRNIeUnjn0cKk7R4i6pQ22frGYU9/kfhOb8NB/YuM1Ekpb+eYjx747T4CRpyRA0R82HgCASkxR2AqLKgVgEpXxekuRjUpIlpWdtJGQ6ESV9ZcSAoyyV6LrbK5TAACRPEnjLCzirqTZjklSJpit5wwXt8FbXZVWuLrO+Gr5eTH5S96r5rkZtdUmhp1r0PWzWwDAQdE/hYSvVl/RNK0IIYRQPUzF/MZVuufdZ/a8CwBMyPil7y2dPXDdCwddwPMCsGzD+CGRiOF53ls/Z/A/Hnt2VMWz/3pkb60A7KBFX7zu/XbvcwclLxCWpgVHbbYDKBnNAvEWzxXiy3RvPaYDABAr7181+sZxsh/P23iRPDHGWVTfPUmJ09IkRTssPEBIkjK0RFtMxNfFC4W/uqlEZY8qS6ENqDB5gsq+uRwAgEkKzpDaVhdfUcihycqQksqixv5MJkHzxD0i94Kse7XFTWbhS3TFLCEAYGTYb9RR/wuNxKZ+hBBC/tLec04GDsXQrJhhxRQFQIsZVkwzzY6vJpzTIVHHS0RihhXTXhvL6B5zV/346bwUBQ3AiCQiWuB4AgBC5akz5n7XTssIFsnjx84Yo8w9VeRtTBPFiliKEbMMUJKYweMHBDWzh4Si5b8/PfC7py78N9xbHgZAzulqw1JTJ4ayDCMb1D8xw2LMsV1MbOTjnnr/q0XD5d4LbRkmOeW7rJEPpDEUgDQqOC3CnZ/v5AFA4G0ucUZ/uYxlk6f0nN2rZv12hwBUQopcf95qpRXJcfZzJRCcoAwusZTwAAQEWjXhhvA+A2IeeTQ2hiPyGKm8cW+E/SN91c+jX5oibf5QpiiRmJZI2LSeCkuxzSKixfXD5ATJNYdK7vOQhwEAS0glK34hJnFizwHvRMRiHoYQQsiPuk2rGJ2w8GLrUe9vbpoMxLBm+/K3DN7e5Nbv+bB61vPXvaykKbf31iah7Jf3fx745Otb5ssZ4qw6tfm1F465AQCcB9/99+pnHlm54T6VU3f0l9df+rVa8JwCk9qdK5f3f+GpVXtedlWd3rKhqNbP00yQ6pzDzwcNfvjm65eKhKrK0rc3njl9sQgmfsDwRLKu3OGPoviiis/XRz71v8n/YsFlsuz/JvvVvTwAgKv6k3/rXn1izIGniDFP/7/Hs38oJ0CJE5PEpZtsJDQ6gbP8UQcNmRkAqdZ9/lXsfx4Y9NG11V++dvJ9Uf/H307OnXbmMAcAVGRGWEYMU+QQmm0ok07sv2uFRtmQcA3NuoWc/3TfzW/VPn9we/SmKu/vLRFLvg2NvOIqQQghhC5HpXsd6KfRaLRabZtG0A5FoBaiQqa888fs4ofmvnG8W8z6KhOEFWX5/7CYWrLyLcmZp6WBnLIVIYRQl9R9OihR85jklGRnzrG8bpGHqXludXFOC/MwAJhn0LVpPAghhLqnbtNB2cb2nfbnHBB/NypzeJtuvx539L1p49uhnMDr4XJ+WpIb7/KhJ3aKybg8skeFSNx2USGEkE96uJxakRjnaO3sMBXzj/ZJlZBfZDisH5fkhXFun97FALnbqHstKr6NokIIIZ8whHxckksA7k/oVd7BfmwN+QRTMdS9jLKa3iktkAst+l0nnqJ0rLhCVP+fBCcSQwh1HLfW6hNdjnMSmQ5b6zs5TMVQNzLdZPiP9jzzt19cMLAirUisE4krWElj4iWuEEkMrKib/FA6QqhzkQnCQ/pyAPhvZBwP2EHZuWEqhrqLW2r1dxt0exVBOlFjvsWKdSKJTiR24UgLhFCnMteoi+Dcx+TKrarQQMeCrhSmYqi7+CEk4oeQiEBHgRBCV0rNc/dUVxCA5ZE9Ah0L8gOczAIhhBDqTB7UlysFfrsq9IhcFehYkB9gKoYQQgh1GnFu5+01VTxFvRUZF+hYkH9gB2VbyTmTFegQAqO3199vQAghdCUWVJWJCfkxJAKf6e4yMBVDbaLzZqKYSiKEOqzeDts0k8FB0e9GxAY6FuQ3mIq1rW51X++86Zcnbf2JutXhgRC6co9XldIAa8OicC6xrgRTMdSGOleq0fVSSYRQVzLSWjfaYjIx7MdhmkDHgvwJUzGEmtEWCSWmfQghn1AAj1eWAsDH4TFmhgl0OMif8AnKNkBJNQPHBjoI1DFRoZkjRqf6/vy5KG7q0ys27N7w+6I++P0JoW5oap0h02GtEIm/UkcFOhbkZ5iK+RmtHvjgB6u+feX6yxZHR42YnRAb1FbFMtHDp8+e1jOoo08a31ni9MQP8UtiRz/2yZe+vkt51bzFI8vevHXG9DdPca0vHCHUKbGELKgqA4B3IuKcFN64u5pu9gWbUk8ZPGtRgkbN0MS6+94N64/79ycGmR4zX33u+pqP7l648Y+/lKsa1evahcFH8krLs1pQojhu1raMynmbt+Rf/mOJHtDqUXc/8FjK5rzNeVnu1gTuDRUUlfLk5H4TQ1w//PzH8vIrqbE2jbNpqvQxf0zWXBjf6jp/8Jrfi22t3Jgf4ie6P5fffnTnKQAAUFBgbdEupiQqpUh/JqfKib+JiVA3dEdNVbzLmSeRrwsJD3QsyP+6VyrGBA++J97+6abnf7ILQAS3v29r0mG3zkk69PoTmwodf/0DMf20+6VNNGdtoxupoP/p0Vs2MS6r//Ow8NShH18VfGj/yU3Del7x1lodJyVPDRIXmmr51pTqLj1yy/qimvqchwiu1myjnp/qma8+XP9iaiT1Q2VLcjFiqa0TgoOCKdBeUckIoc5HIfAPVmsB4K2oOPwy1iV1r1QMaJFIMFfYXK5LDmdamnrv4Otuj4pUCbXZJX8uO368WAAApl///1upOvOdEP+PkDA1X/h51vff1Hi/izNJAzPkx9buN116c2XHDV/63wQpBcDVbLpty7bC+j9S4XMnLBhVs6cuJD1VoXQbdr14aM8pN4Qmzds4tFd9G853t04GALf+1+t37NV5vF+Lrnrlx/9Ok1MAXM7nt971v0I/n6ksp//v90d2W8KeGPq3v9ERE/6z5vFRlWvvu+fr3GaypNbGSav6JYy9N31wou6bW4+1LhUDAJ7jm9h3/otfdPWopXcZ35lzVv/Xj+VpeYPBGaIfKluUGgpms0URFEQDtLYKEEKd1D0GXRjnPiRX7VSGBDoW1CYCmYqFce4HqisOKGXt8EVfFHX99yMGhtAiFUstuz6dA+Ct+xds+fMUkY0fMPNGYdO/1h8rYZP+OfrOF9PK7smtFgAAKKmSPrztw/ddosy+/1xNs8O0uQdlimyZMl8i46m/DxeiVMEKi7H2r7dWbvehl0ccBkWP2evTLluf7iHSzduxSUdr5l/14FMpZ+ec1dcUrR5bQolj79iYXnX/tm3nCAARXN7aTdy7Xrh5+EuUYsrS329vQUXQiY9PnT9bcXGogav86/F7j3vssSO6okIdADT5uA5xW/UVVRVVJkfzLTs+xgkATMjQpHH39ewTZjq6OmvFRoPZ3Yr4AQBEsf2/ub8Px7t1laWf7z69q64xLWrb+FtAFSSjwOvurUdLYlM1bPH+MszDEOpmwjj3XIOOACyPwl/+7rICloqFce5VxWfTnPa7s3TtMPuUW7/5vj93ikPHfzRM+enm3w4IQIizhgDQkf3VcPDYkVwXD66CdWXGm8JipVBtAwAgjpqC4y4C4MrTl3O0eGqtfmqtHgAcNH1aqsiWKU/IFNkyZaVI3NDURVEgkMvurILAuQBEly8GACG3Mk8nAAiVB6stt6nUDOgFwrt4AIEACBzPteAuDQLndgGIuJYNKxOKlv/+9PIWrdo8UnvwzXkHW7iyb3FSmgcmzLuqbu8ne97aWWe/2KTkc/yWgqybyhgKgBEHjRs59IWJ9tm/FGiJn+Kngyd+Nfnq9PrMMG7RkX4guA4v+PX7faqml+/5a+NYE/n8ZZSTVmxZfJWI2Mv3rnh84xUNj8zaegAAIABJREFU1EMIdUL/0pfLBf7PIHW2TBnoWFBbCUAqFsa5V5blD7JZ2rVUwV5ttzMyFwfuWrup8uItjRHRAt/4T54IFM1eaAG6kFa5dT+8YjK80bhcKgiDbebBNnP9P/Ws6IRMmS0Lcp/eRydxLX66jhAiXCiIopq/L3cnjjKTLTIyfWyN7pwtt6SFCVwTCOfSNxxq9u8PFl1/c0QvpkDrr4cQBdPWmT9sbaIj0tPyy4Jr9mNZtiwcsQVoSdyNz6158bZjd63Jw4YxhLqNBJfj1lo9R1Er8Je/u7T2TsUuNIYBwFG5sr0TsibwboGWNvZ3MRRNBK7Jm52eFXnaRATnnmiumWiugf/MBgp+EcuONX59YQhpqiszcFrTwRcIxPhH1tt7QvrckX715+nXHD63Y1X+yVyX4HP8dJ8BQ8ZbTr9XYBUACBH4DjWBi7nO3qIcU3BWag28SqXsSIcSQqitLagqYwn5NjSyUCwNdCyoDbVfKnZpY1i+RDYvId3AigI/57hQdcIIjyUOTDMcL2WSpsepC0rKHU2tWO05FfsLAslOe7LTXv+vw7lHTsmUp+SqPOlxWiMVM6xYILzAe2/aIJzTIVHHS0TFbgKEdwle7tcUI2JZihKzFFCMWCKW8ALn5nhP7/C5g4+iaBFNAUMzFAU0LWZAEIQLjVTycU+9+QC/+v43DzaXzPkYJwCAUFd74uMDJ79S9bo5fcKbg+D2A9k2X+MndZTyxuG9c4wn9lilo/vHa6rPXzpA31/xE7uzttr9973qaXmDo2da+iimRB0qrzllwA5KhLqNvnbrlDqjnabfw1/+7uraKRW7rDHs0bg0QwszmzZn33b8m5TB1304/WaVUHui+JcX8qubvN9Vsa357VWpIAyx1g1x2PiYQp666ZubbgJiWLN9+VsGb+9y6/d8WD3r+eteVtKU23urD5vx2E//nR1b39Iz8tu9c0DQrrn3nuXZfuqCo5KHTvpyeEjDcTLjpluA375p3eK8+s0z8QOGJ5J1TSevfoqTWM1nvzx09huGbc0MEqTkRNZ/VIMfvHn6SyK+XFu0bEtB2cX0z2/xc7uPvLW7ibc1vZwOGwSQBQAbqlrY8UqJWAYUEZpQtsTQ+s5ahFAn8nhVKQWwWh3tpU8GdQ1Uutch8xqNRqu90gccL+RhFxrDLvypvlWs4/xodBDPRXLuCM4dybki3O5IztXwmnNHuN1S4nOjhIEVfR0a+W1oZEsb1ToVKmTKO3/MLn5o7hvHOfjr3uxoe7ZJXuKv1wafgoq++rGVi8f2jY71acuUsvespQvnjklw/rzoBpxwH6GubqzF9HFJrpFhr0nrb6HxFye7uDZvFfOShwXElSRbBMDXsTrj0wa4O9RYMb9iklOSnTm/5HXWxCAg8TvLD6x84NNPfHwXseSsfWr+2jaJCCHUsdAA/1dVCgAfRWgwD+sO2jwVW1mW3855WBDPRXDuSM4dwbki3e4LmVZ97uU92bLSTBUr0ovEVaxIz4qqWLGeFVWJxHpWVMWKPi3JHdjccwYcRW0IUq9VR31beAYA2joP23e66bkYRmUOb9Ny63FH35s2vkVrBjZOTwIRP6k5vW+Pj+9BCHUr15mq0x22MpHk61D85e9uoc1Tsfpx+v7Nw64w2bo0u9KzjVmXSFzFimxev3/ovQ4XC0hfZGBTmZbrLHF60tnjRwh1FmJCHq0qB4CVkXFduFMFXaqdhu37Kw9TCvzu3GOtTrb0rMh6BY29nsZOnpAp1qqjNwap8bRBCCF0JWYaK2PdzrNS+frgsEDHgtpJm6di/h24Xd9rbqOZqrZJtry7LBW70Bd5AidB7tICP+UKQqh7UAn8/GotACyP7IHPSncfne/nwEf1GmSnAzNL54VUrGs/F4kQQigg7q2uCOW5A4qgPcrgQMeC2k/nS8UClYcBgJ4V+9oXiQ0qnVpbTMYxy1g5yVyTJ5HnSWV97NYCicwRuEMaIdRxRHKuOUadALA8En/5u3vpfKmYr/wyNVq9fcqg3cpMv2yqm8BM9O/+p46K5NwPVDcckwSgRCzNlcrzJLL6/5eJpTipPkLd0MP6cqkgbAhSn5IpAh0LalddPxXzI96XacU6+OymKFAIwIrIOIaQew0VAEABJLgcCS7H1Y0rOGg6TyLLl8jzpLJciTxPKq9h8DxFqItLdjpuqq12U9QKbBLrfvASj9oEZqJeEIDlUT1oIPMMur//VSoI/ezWfnbrhSV6VpR3sdlMfl4idVLYp4lQl/JYVSlDyLfqqBKxJNCxoPaGqRhCAUAA3oiKZwjcbWwiG7tMBOeOsJhGW0z1/1wZGfdBuKaNA0QItZ8BdstEc42VZt7HU7tbwu/WCAUGAXg1On6N2rfZtI0M+6WPb0EIdXCLKkspgFVh0QH/bUAUENgqdqVwZPoF2CnpKwLwn+gElpCZNVUtfMtHEZq2mzkPIdT+xptrB9vMBla0Kiw60LGgwMBWMYQCiQC8EpP4bWhkS1bWicQtXBMh1CkwQB6rKgWA98M13n95D3Vh2CrmH928QQibBq+EAPBSTCJDyC21eu9rvhsRiwP2EepKbqitTnPaS8TS7/BbVjeGl3V0KSZ6+PTZ03oG4W9pti8B4HlN0o8hEV7WcVP/3959x0dR9H8A/87uteQuvV96IBAIoaN0FJAmiDz+REFB7ChFsHexN1QU8BGxUZTHjkhRKUrvCTVAKOm9l+u3O78/LkFaLoWEC+TzfvFHuNvbmd3bu/3czOwsszLc5RTg2qHm8ozCbCKaFxhmx4e7FUMUg3MIvn0nPzR75og4tJZecTLRy/rold7+tS2g5Py97DO/njlyY2XZlawYADSTu0vyg23WI27aPzx9XV0XcCVEMTiHXPjLzP8beMv8PTZX16RVkole1Eev8rpEGkvWuL+oj85RqtubjZ9mpqxITb7OUHFlapVgMjyXl+FnxzEB0JQ8JftDRbkcd/4GRLGmw7Tx49797oetW3/bvuXHX+ZNus6HEREJ0Q+v+H3uMMeUfYrOs5b8Ped6FZGiy9TffnnntXfnrfzp5cenP/XfFV9/Na2Lh+MVAb0enffFpu3rdm/+bumc0XHu9SldOazva8viAi7j7VTe8MaqpMQNB/au2fz1hOjzVyQEDH73jzVbl0xoj0GlzUwi9nxo9GovvwsenxcY/rN3wIi2nd8MjixSKLuaqr5JP/5l+omEc2aCbSY/pB6dXJL3TfpxpDGAJvRQUa6nZN+u89ql9XR1XcDFEMWaCPMZ/uh9UTteGTFwbL+hj31dmDBmYIjzncvUOb+/9MwHRzq2L/h6+lNrxf+7uaeSiHQ3PvbU8LJlk4eM6jfu/YMdpr4wPrwxb5IQ9cTNbyeNf/fsv939ujoNdbYtc267vveoG+fstF70HLcZCnMLcvPKzfjt1vwkYs/qY9ad02Gxz91jm86LiGyMLfcNGta2y7zAsEpR0ddQ/n3q0U+yTraxmJq7VnUOYzmWvAdXbwDUU7DNeldJPu78DQ4uHhPUoeN1er2emuh23S4lWa2ye3CbTnFVqVl5a958+ve6XsAtZosscZPFZLJwi9msUKlFIqra+OL4jY4lzIf/2Vc2MixIpMza7g8teA359qZhcY6wFvbk/s4kW/c9turHbXLaB2ue+6AhGyDbbVYipf0SaYuX7Z577+6GrAwui8TYU6FtBKLhFSVE9NH5/RcmQVjkr1/hE3h/cd6kkrybKkoHV5St9vJbEBiapWyuW6bcExmHyScBmsqMwmwNl1d5+R3X1KvjA65tGJ7dRHj5Xx++H/XILTPfuCtM701Z2xc8996Ppy5uYKqTImzI/c89PLCNjjgnpaef8JezpeXyjRN+2kikHNb3pUkl8+85XlhbaIOri8TYk6FtBOIqmSe66y5eoEJUfBQYttQ3aGpRzvjSgrHlRaMqin/0CfzMX1/YDJkJOQygqbS1mMaWFVkZ+yQwzNV1gRYBUazJWDO3LXh+2wIiEr1vfGnhS3d3+23ObitJkkwKRfUYK6VSlCTJSS8f8xo4+8W+uS9Om7G9TCZF9ye/ec+tUbURop4Y+fDd2n/7Nq3ZK27cfsDYqJWBS9gZeyK0rb/TEVrFCuWbwZFf+wVPL8y+pbx4Ykn+uLLCb32DvvALKRfx6QZoiR4vyBSJf+sTnN1szdhwdcGXdRMRwqd8Oa//lqcfW3LaICrVSkE2SZyI5PwjyZUTbx7VcftvaV79b+2vO/FNmuRkjB5TKBVMVClEYsqQHjd29RRO1Kd4brKUFdmkfx9ocAclE5UKBWMqBSMmqtQqtSTbbfaa2Og+6Jm5D0lLHpy7G2HuSrIxlqtU1blYjlL9vD7mS7+QGYXZwypKHijKvaO04Cu/kKW+QU01f7ef3YaGMYDL18NYeUNlWaUgfhaAO39DNQzbbyJy1spPfzWMem/DjnV7Ni+eHrjt3a+TbERElt0L3lpSddMn637/e8k9/pvee2NVkZM+RF62+ZMPDsc+8/W2bT/9NKe7Ka2sfh2O9q37P5x9uqTxvZOKjrN/WbN719q/5/Rxj7vn++1rd+/4albnmqQuRnS9PooXZpsbvX5ofqfVbrPC2t4eE79N56WTpMcKsv46dWhySZ6KX9bVFo7u0U+yTtZnYVxlCeCc487fX/mHlKLdGmqwOKd37NHr9TnNPKa+uYto7vU7rhq7tm98xLxHzF97d/qjU94/YL/kAq1hJ1xdehorZxdkdjdWEVGuUrUwIHSlt79U93WQl+Bnt21LSaK63l/HMZDorrsrqmOjqgxw7RtaWTo/82SBQjW8bWezgKYQqIZDAeomxrSJsRxLSrl0DoMWaJ+7x11RHadGtDuucQ+xWd/ISf391OFQm6URqzrbL+mkxevsU47wBwAXE3n1nb8XBuiRw+BcaCBtGjuONu9cD33jr2/W9ddWf0e59sSFo25s1vKhWWzWeW/ReY+oKJlZkCUzllePYWeXlOiu626s+iTr5CVbvPzstq/Tj19eTQGufbeVFcZYzKkqjfO7zUIrhCjWNJo7KjW3FlJ/kbiP3e5nt53AXDtNhBOt8/T9y8Mn2G5tXAclEc0Mi92WktTdWHXu4H0/u+2TrJNnm8FOqt1im3+mWYCrlEaWpxXmENFHgeES7vwN50MUgytKxbm/3Rpgt1X/s1kD7bYAu83fbguwW/3sNoHolNptTJsEV9f0miIxdjmXzRcrlI6Gsa/Tj98fGdfXUP5wYU609d+rOBLddY641hSVBbgG3VOSF2i3HnTTrff0cXVdoMVBFIMmppWlmqRlDbBV/3E2b3lJdQ84O+h2iRlNwbVmhsV+nX481mLack7eciQwTHIB4Jy3ZL+/KJcTzQ3CbY7gEhDFoIn1MFY9k58eY2n8xBeH3LRNWB9oEsUK5b2RcY4eyVSVZlGAfrWn3yX7WTADGcAFphbleMjSPx7e+9w9XF0XaIkQxaCJbdF57dAm3FlaMKMw27MebWAXO4RWsRapWKF0PlGF89H9AK1TqM0yoSRfIvYh7vwNtbj2o1hzz4sGF7Mzttw3aLWX37TC7AklBSI1YIpRsyCcVDfuZk/NQuR8dEXxJYdGoe3nAmdH97u6IgAtyMyCLBXnv3r7t6hvNmhRrv0odmU45reEc5WJijeDI//nE/hMfsaAqvJ6vuq42r0lXF50yQR2Vndj1baUJASyC2BXAFwgzmwcXV5sZsInAbjzN9QKUQya12m120MR7QdWlddzAFmc2bjjROJhN+1RN+1hje6Im7bwyp7gpxdmTyvMPveRC4ZGnZ3EwXFF4b2RcYggAHBJjxdkCkTf+QY1elY/aA0QxS4X7vZTH/UfQGYTmI9kH1hVPrCqnIg4Ub5SdVSjPeymPaLRHnHTljfzjdvO5rDaBqc7hkw55jWNtZgwNAoAbqooPeKmzT0/b/U2VPSvKq8QFYv8Q1xVMbgqIIrBFVLPAWS3xCQQUSezoZPJkGAyxJsNwTZrsM06pLKUiDhRpkp9RKM74qY97KZN1rgbBbE5altnwnZcUYihUQBARPcX53YwG5b5Bi/y11eKIhExoscLMhnR5/4hFbjzNziF4wOuKOcDyAoUKkczfp5StcGjeiLECKs5wWToZDYkmAwdzMYIqyXCahlVUUxEErFUteaIm/awRnvETXdc42697HFm9WzmdHRTXmZZAHANEDlvbzaqOL+/OPf/ygo/DdCv8AkaWlmaYDLkKVXf+ga5uoLQ0iGKgQvUNoDskjOKZag0GSrNGi8/IhKJx1jMnUyGBFNVvNkQZza2tZjaWky3UhER2RhLUbs7GsyOarQn1W7NcQXABTf8WRgQ2uRFAMBVJNpq1nDZ8beXZH8uL2NScb7jkQUBoWaGO39DHVpNFBMCJy76emZU1rZv57++5Eh5A2ZXgOZy8QCyOufZl4idVLudVLv96u1PRErO21mMCSZDJ5Ohk9nQ1mKKNxvizYY7SomIzIJwTON+WKM76qY97KZNU2ma5G1/qCjXkcPSVJq7ozpgzD5AKxdvNlzwSJjNQkRmJmSpGn/DMWg9WJzT7hi9Xt/c83JdgSJqKLw63PHR54P23v/If1OkK1Ii1Iu3ZHcMILsvsv0erWej16OR5Y5mYydzlWOcWYTVfO6v0UpBPOqmrb4CwE3b6HsyJpgMP6QedfyN+Swu4JjVBdeyQKvyXF7G5JK82p7d5OHzYWDYaUwqBrVrNa1iRET28jNp+fbBYrOM84bGOzuALOcybllNRGZBSHTXJbpXN615yFK8ydDJZEgwGzqZDCE2S29DRW9DhePZElExqm3nRlyPedhN279dt7PzWWxLSVoYELoA3ZQArdXFrWLnGlxZOqiy7CefgAUBoUX42QaX0qqiGAkBer2yYE+e7OqKwCU0+a/GSkHcpfXcVdPM5me3xZsNZ68AkIkaPS/G2fksHIFsWmE2opgD2sOgtRGIOpiNzpcRif+nrPAfnfc/Ht5XplZwdWldUUwM0QdX5uVUYaRYa1SsUG7ReW/RVX8VejXq/pgXrNBxq5/LrhoAXK0irWZ3uY4RL2ZBmBYeu0PrdWWqBFed1nVlh1xWXKIICA9Wt67Nhku5/KliHbO8EtHZLlEAaG06mpz1ThJRlSA+ENEeOQycaF2ZRDq1asGfQbNXrklM3LBvxaTY1rX10GREzseWF21LSYq1mE6q3WaGxbq6RgDgGs4HipWLiilRcfvdPa5YfeBq1Lo6KBWdJz47Ivv9W6avyrZgvBg0wgWTih3XuD8Q0R5XUAK0Wh1rHyhWpFDeFxl3EtdOQl1aVxTjdrudGUsKkcOgMc69U3htd6gEgNaD1d5BmadUTYmMS1dprnCV4GrUuqKYlJ6apuwSHSxsyUAYg3pxTJR1LswlBgAO4VaLx6XG7GeoNPdGtr/M2Xmg9WhVUUzQBnq7kaevl0CEKAaNgSnEAOCsjpcaKHZK7XZfZFwhfq1BvbWaKCYETvz8m1ltCg+sWvx98uXOYgCtBybKAoDaXBzFkjXaByLbl172BdrQqrSaw0Uu+O6BUd+5uhYAAHDNiDedN2Y/0V03NaJ9pYA7ukDDtJooBgAA0HTY+a1iO7We08LbmQRMkgQNhoMGAACgwYJtVu+am3b87eH9SARyGDQSjhsAAIAGOzu56zpP35lhsRaG8yk0Eg4dAACABnPMKPazd8BTYW3smF8QLgPGigEAADRYvNm4zDfoneBIzI0ElwlRDAAAoMG26ry+9Q3irq4GXAPqjmJy9CWmEr4cJ9bsP+//yU27egAAgCvhhbx0J8+2v7nHFasJXNUwVgwAAADAZVzWQXn250KYJTxLnemqagAAADStCzt/AJxCqxgAAACAyyCKAQAAALgMohgAAACAyyCKAQAAALgMohi0eEyj7zDwumAcqwBwZTCftn36RXjgSweuDBxpUB9M2SXMb6CneMXv7SF4dXvklaU/Pja2oxb3FbkaKD2nzr3pq9Fa0dUVAbgc6qD+T7z27f8eGRKhdHVVoBVoRVGMeXbtcP+CUe+vHPvmZ/1u6eN+GecKocuztzw9wbMF7TwxOOznh2IGNtf5j6l1Y9sFTtZr6lcA69M57sMY9b/7R9A9Oqjjrzd1/PWmjj909XKvd7lixMQnXh1b+fXdjz3xzenqqYZFfZvvfxk0I1rwHHLdgaUJfWrmY1H17r7nv3GdroUIIPR4cMi2GQENPwUI/WcMT1495vjqMcd/6XWLthmqVgcx4Y4u48uOv7jW0MQTQzeLOvdzo/YnU3Ye3X3tT6OPft2pVyMnC2pEucpbX775uOMlq8ccX33zwhtcfCeV2j6nVwmet/3922e/vjfmsfmTuula4c9Ajfame3r//euYw29Hh5zdfNFr9qej/z3MVg1+Oq4FnQWvalfZ5+MyaEPGPhUpL90+5x+jtlfCA7N7lJ7ZtjX/Wrlnhbu3m39FVXpz3QqNm0vf3FwuyLK9ca+XqxZtPbaYWGhU1Nue9X+ZJuH2KaF73nn/j1TLOXWxyVaZWyVutcncJtsaV6Nrk7zj0/VdF5EY2mb5+96uqIB0ePnWwa4ouHk0fH8yzYjZ/V6KLPx4afYjY69gudWv2vToBovjO02yufi+iNfA51Qq3Tvvs1V95kwc+duBH4uvlXNFPQj++rfe7NQh5fT/dnlMrKosqtl05uYR61f8+n17firjRESc7HbcfrNptJooJnjrAtTlW7aWGyxk2H50icWHWYiI+Y7u/8yIok8eO5YtETFl16eHjSnZ9fbiYjtTRIzpfsftQf5q4jbT6dUHV/yvsIrUvV8dOaGHQEQ0YOhHdxORfHrRX/NXGTmRLqH97Q/GxAaI9rLSvUuS1uwyyiREPzB0YmRxjsY3uCTvsNmzY5x4dMHOtYdtzj7XnsGBswYE3xCkUlvM2/alvpZkMBCRyve9+0JO/Jj8ZTEnUo4b13lU6pGHD1i73dD5v11UAhGR988zw4h47oET4zZX1hKaBHe/t3vrTqZJ0YGaIBU/mZ4zP91kJCLmdk/fiNDCUslLF+mmsJYVzT9acloiEjxmDQofpCAifvrUmadTLfI56zmdIUX7awJV/ER6zoJ0k5HEod3bTfNjRERBbX5uQ0T86IlTL2XYJJlLxG3yhdtdy3qIiEiM7tDJ/djSnZXnvYjbZCvJNhvJNtlu5073JBGR6Bs4bXrHOzprtZLlxM6Tr36Wnmx2trw2Nvr16W37h4gCl/OOpr3xccquciLBc9q8fu1//GvmVolI6HrfDZ96Hr1hXr7cIX71Yx5JaWLXCMs/u+3tevio9x56dHlxBW9wuUp96EtPdBwdJRYdz1hTRlSzMPPye/DR+IkJbmq75fCm43OW5eXU3uIkS7JVItHGL/6CFLz9p06Pn9hV52EzHdh84pUvs9NstW9vbQTtA+8PHHAqtSI6KDZYZTt2+oWPzxwyNmb/1LJdQtf7bvgsLG+F3eeGaHc/S8nn8w4uP2Vvsvo3cD872Z+1YKbDRycsyMuNS3ikfi+45HHS8HKJiBhxi/Wij1htC9dyXDnZn8xb/+5HXQYWnpzy3KnjdTV7NvRzSkREymFt59xjmDcpt7CuDWfatuNemTqxX5CGkTU/eeXbC5ftqeAkxEx9b0G7X8c9vt1CpOgy+etPPBfetGCX3P7RX6dHH0jTdAkv3rzXFNstXpP44YwVByo5Cb7XPfLw1NsTwrT20hN7lr/xxe/Hz/mc2tJ2bCu/pUcb5Y/F1rMPCr5D3nn3qX5Fy+5/8ds690O9qDzGPpjwaF9PX6UgmCvXfZX4yj8GiUg7sOc/t5VPnH3ypEzMO+KLL8I3T9uxtEB1x2s3/Kc8tywm0PtY1j43/5HtLQtf2PdzHidBM+CuLi/c7OtdnL/8qHaKX+rg17MqamqdML7PZ7dr1r+7ec6+On5SC17syGdbXz4g3/pau/Sj/7Zwi2Ge0WUVi0skSyN/k0OtWk3ropyffzjTb9hj7bvFe2gVluy9eVllnIiXbk495htxfUeRiJhXSK9u5r0bSuxEzDvs5skex95Y9+z43198MqW8U0SnYEbcsvu1VU+O+33pNnv2ik1PjfvtyXGrFq42ciKm1Y97Osr6w+aXJqx555PS2Jk9Buirm3UVuRnLXjic3sGrbOmOr/5k/UYEOAvAzN33udEhuhOn/++zxHHrK9v0DR/jQUQkerlFkjm1ghMRCZoYbym91CoTT9pyqP+CpFfOSMd2Hh2wYH/fBfv/s6W2HFZThMrDmP/yrlNT95W6RYeM0Z19QghmhoV7zzy6PXOve+BkvZIRkVw5f/Ox8RtPzC+86LuUqbRV+S/uOjUtqcI/JniEloikjUnHx288/mG+nHbmzISNx8ZvPP5KZl3fwpdYj+NxDw9tVXmZ9fylucV49EhZlonLpRV7jlWV17Fy5eD7uoyqSLnzrrU9Hz6Q2Db+ldE6Z32YTH3z5LjoxH033vFHz7u3f1Hse+t1dQx7YirDyg92vZviE1d0/KG3M8RRkdcpG1GuatT9CX1zkm+9689bFpT5RaurDx6mHPpg9/8zn5ww+c9+0w4lJ3R55+ZGDcNyrMee+uC9f/SecTi5Q8LbY7Rio7aXSIjQVrz1/OYRD+35M6D9izc73a7a9o/T7dIEsz3zt497cNO0PbrZ94aFsKarf3PvZ27avD4vw1r3gjUaeJw4I/S674ad3w3bsnjAwnuCQ53/yq5te53vT5s1O8twJsdsqEeuauDntIGYz4iJD0QlvTRs8ui+903/qqTzLT1DnJ/MmDL790+enHsyPq74y2lzVwvDRvdSEJFu8KSnR1Qsvfve4X1mvHMg5tGXRoaftx65rLhC4alzO7eLkturCgvzc4rKTE2zUUw/rNMLbUqefujPXuP/GPtNRWQv/wiBiFhkhI7nVGXJRERiqEeksepMMSdR1zbEduiPIzOXlUQEm5d9eGBFuV+/NoyI6Yd3fa+Pae5jfw3Oez0oAAAgAElEQVR4KU/fTVeYVWU4pxSNipdmlR7Oqzs82k9nL08yWUVdO739TKblbCz2jPDQB0UuWjZ8+9LBPz4X29slLe/XqFbTKkb28g0vb6/4T5s+jwyYECSd/i1pxbcFFZx4Ze6ObZ0mDQtcdzhP3SciJj39lzRORCTJdln0ifENM1QW5Wf+8EKGYzXcLtuI7JxIku1W6exBKkT4RcoFP+wySkTGExkHc9u0jRU358hEZDNLXCarRbJayGaWRJXgbOSBR4RvH0PhfYcNJZxYriGTazUKRsTVPm6BFcYMOxER02ii3Cw7SzkRyTK3CqpwT56RbDZJ9foRzc1JRTaJiEzGE5bAcHdGVY6vFPl0ibGKiCRzcoXcR6MQyCYRORq0LpHuatYjVRmO2Xz0bowMnHNu42Qn4pxb5fr9qL/Uehw7lRjn/MKvO1Phh3MKiYjKTk07XufKbevnrl/v+NNSsumQZXSIm0BVtX8bcYuVuwd4dm5jO5NrXLVw18o6a2+VzJxzs2QyS9xiN4uCWmh4uYJ721BK/Do3w8wpN2/1IesQxwgm0aN7O9qxMD/XTlRZ+usOw90J3upVBmOd230B0aNbO9q5KOtYpUyVRT/vMI6P81aTwdjw7SWSjycW5tqJ7JU7ki0TQt2d7s9a9o/T7TKfKtpfSUTS8aNlxr7uQSLlUhPVv7n3c4M19PisdT1/fLRxl5qIBF1Y8KyZ3d4q3nzvamOtn79at9fZ/uSGoo9f2lLfGjXkcyq4DV0RPyLO8cXo80xSGMn2vTMPfL+11qwjWa2yu3/bTjFVqXl5axY9+Xtd1eFWk1mWuMViMlu41WwRVSqBiKo2fPx/GxxLWA7/faRsZFCQSJnn7DfOOTF23lc2r9j9/vO76yqw/lhAoJtgL/UL0+lzjLmbDk7a5HhcjArXZKcZHMHeK8zDN68gTSLmpY32qFyVyn2HqItPlxeRJsTbnFnAiakH9fc5sebApnxJFirSqsg3w3DOhkh7l+8Yvbwh1fLQxXgZNmb/+x6Ubz0wLJExYgovn/tnd31zfPHwz0vQQNYkWk8UI+KVpbuX7Nu9hNQRUXe91nPs6fXLdtqIpFPr0ivfju7sV+l+o/eZv/aWOHrBK7J+nacbdXP8pDu0vt5UvPPoko9Sc5z82lUICu+wSYuDHFlJ4Saf5o0Z68nC/dzsJUVZjsYvL02oZP69khOxMF8NLyt2fCxEb7cIm2nF2V88oibaw3qyrL4/0Tid/YDKnM79lqnp3OBJySnTG7AeLnPW+JGtta5HJs7YZayYiEgI7xf38gR9Wy1xTiqdmm11Xhfrui8ORt8d+fgTsRFBasrL++i9pP+lNWI8RAPLZUxg/GzfkiRxXj2YnCmVqtFPDh5oIyJiCtFylBrVasKUIpdqzvCSxJmCKaiR2yvXVFSWiVHj3iBn2yXXlG/bf3CA41Z+iiaqf7Pv54Zq4HFSO3OlOa+SiIiKUhdsDF8W76Vabay9S7yW7W2y479hZNOGO/ZtaEAHJS//85t3oyaMfWzm3eGBPpS/bf5H7/yQ3oDWyBqKsN4PvjB+UBstyZxUWl9hxwWHM2OMLv492KTkI2uPrQiKnvZ4eESgihXkv/dG4g+ZMonubUIpbYujf1CIitAas6ryOYl6j/CSqjQziwp3zzph4J4hUVrDyhxOokf7UMvxVKtMRAptTKDlTLZ0OfUWQz2iDFVnzjmvSCZLvomIiIrMK/fH3eynajXdas2u1UQxZduo4fGGzasKKzlZMjL3Hk0YFeMu7CyXieS09B1n2vSe0E4VkvfHTkvNgScX7UheuiOZiARv/Z0fdbuhS/p3e2v/grDL9pKM5Q8ePHXej4R6HKmM6JzPCwv1VuYXVnfFa33dAsurzkhExMJ8VEWlFsd3jbefm09pWWpNZUQvt3Ayr6+49Mfu/PUTETGmqPm6ERg177fM5eCVVQad3ltF1Ogxv8wj5OnpwTkfbJ26zyKR0POhG+ep63iJNTd33vu584hIVA+dMeDVW/1/mVdgJdkuk6JmvykVTJacDcppcLmcy5ydbS4VxbP5httslt8+3PT64cs8HXKbxNxqwoUoMm6vbuisZXsbqmH7p+Hb1UT1b/b93DCNOD4vTeFzz/SQ/BXH/sjnRCRJFzbkXKTW7W2i46HZWfO2zv9o63wiEr0HP/LZy6O7rVy420qSXSaFWH2gKBQKSXIWR5hu0OOP9M35eOq0xDKZFN3vWzr3gv0vePt52iuqmqgrshZSXu4Hb+d+QERK3UNvDbytl9vPmQZJ1EYFmNPyZCIipoqNVKXuqZSIvMN0PrnZaVw1JkRO3WRneo+I4qpUMzEvbaTOtD6fE5EY5t1Rbfgm+7IOZp9wnXdOflrN7x9RH/r0bcrfPk1LlohIERasykq9Ki6Uvjq0mlArSW4d7+48vK+nu1LQtYvu01nKPl3TfM+NiesKgoZFuO9IP17T0iSEtZu1YsDQaAUjEpSCgnH5nKPOapK0IR46tahUCY65tuTM4gxF0HV9dWqBuUVHT3zn+gHhdbYWMI9+r322buuc/0T/+z6YbTwgSBeuZB4+PlO7606llGZwIuImq+wXqAtTMp2v7yNd3Q+dKDt7+aegVfpLJCgFlcjO+5lyqfUTEdNcH6zRMebp5dlNY80wOv+WYQqBKQWmIGKMqQSmFOpuBjHbZU93tZfIlAI7dy4yk10mN020SlAKTClQHeuRUo8dNXbo16f+l5IzQakU1CpBrRLUSkFkRExQiiQqmECkCQwY0kFVx7oE3QPvD196u6eWEQmCWkGyxDkRyabDJ21dbozo5CG460Nu66U8llLp7GuooeXKxlNZ1K1fcLiaaYKCRiaoavZBZWIK6zckOErDRK3nHbP6zqvHWCLZaKsi9/bRKs3Z/SBVHjhJvYeEtvMQNH7+4/q4pxwvszjZ3oZq6P5p6HY1Vf0btZ8vsT9rJyoEtUpQKRgxplQKaqXg7EvW6XHSgHJlqxAaOX18SBud6BkeMmmg2/Fj5c7yU23b63R/Mq3/Y68P+G5WWHhznTe4yVZaWJ9hFkLEvW+t/HJcGy0jElQqBauOXHLe0dOVnQfdHK9TuocMHNdDd+JkqrPjUFAoBUFUKERi6oCeg+O8LtgyZVSf/l4piacv+DHoPuiBRd/dd339p+VxQgyP/fHHfg9FioxI4+/dzteWkm6WiIjbjTZ1xw5aN4WyTf/2d0eXrt5tlkmIjNAWZRoMgi4myHg6h3uF6rxyK9MlIuJc8BwyxD+hg37mpLBgO3cL1LjXHDN+PTsuWTDg9QGaut86x3GrUsRG66pyDJVKQSUyIuJc0/mG6Dt6uGlUqnYDOzyUUPn7tkb0pMOltZpWMTk1ZckC5W2TB7z2jFIuq0j+bc+vu//9eJmSi7Ltnmnri88+JGenrVnl939vjhrpLnCrKX3jwe8O/tutd+q35LRnu8/5WSky6fD7a774x86rcn59z+P2hwe+8bhSLis/8uuh/Vmc6gobjHH5/F9t8o49Gf8MC1s2NZKMpl2HzzyXZJaJiPiefRnrh4cveziCTMZtB0+/fOTfwZT2/JJV5TFzHuihYjxj/7Hbt539rXLx+omIuDlb9H99oE7PbElnclZXOauh6B24oKdfkGM7AmJWtCHZVPzC9vwUZy/iRzIKT3QOWTw4TCS++/CJd/Kq61qaX/hLoP75gX5ujOTKgsd3F2U5W4/50I/Lcuc/8eBNJxf+VZ/OBzG0zYqf2lT/x17+8WNb/5ue88EXfm8+cuO+J+X8lKzV2ZY6coZc9fOy1B5T+2ybqBC5lJ+S9cZHRTYiImnn0sSvpiV89k0HD6tp318HXtpglmv/KcMrGlgut6796nCPJ+J/X9G56ETmmrSa5bltwxeJMY90Wr68m4dsOb77zNv/1P31x0tzFv4U/PbLw+5zY0xy7Afb+i+SYh/t+PU3XTztpgN/H37+d4PkbHsbqmH7p8HbxZuo/o3az5fan7W8n4Ln1A8HzIip3u6vfowia+4TE/etqaWn0Plx0oByZcO3Hx0MmRb33dLuGotx/8aDz68xOEs0tW2v8/2pVIWGecSoNc023bJ9a/rcevXQypm/fvdL9wfmbrpDK3JLwcm/3lmQZCMisuz67o1vHpo5//OHPGx5+ze+89rfRU4/p/98/E3X1x5cuuMxa8Gpv9Zml5270wTvHjMevlW5+ZW1JefvdjGiW5co2pjt9JLo+pKys7/6J+iZD0bMEMlaWbVjbdLbiRIRka3o80U5790/YM8DVJxa8N27ST/mc2LK6DBVxjYD9wyJkqrWGlhUhHtBZpWBiJfmfrEq7N3xvT6/oXDJ4oOfKro99XzblIeP7LUTEQtq69chQJFqqfsCW02fbtueC635/Xv9vuH8zI/bxiwpk/LS317i/drMG/freEFqwf/e3b80q8X2qFx9WFzH65w8rdfrs9SZTVvkiTX7iaj9zT0c/w2zhDd5EQ3FfMf0f/qGvA+eOlnnNdRXO8Hd7+3r3ddszdxydYy2FLx7Pjr7mQmB6YvnPnN2llcAgObEgvs9seCBgbRvwZOf/5V2frpnniMXfjY57fVJ7x2r9Vv0gtMcgHOtplXMGcGj103e6Wv3Fl3rOewqJJftWzBn0q8de4fW5wJ6AICmYMnf8fGcz3ekV1z8+08MaxtjS/4l7er4NQtXBbSKAQDA1WTX6n3Nuv7eo3te5hrQKgYNglYxAGgAXaD7oFldNs87WFVgbMl/u3o/QTO6/KgE0KKI/gGhTp728PCoUFQ4WaARZpzMJaIF7fSO/3pKXk1eBAA0h5BOfn0ejE/8LqXPg/FV+aYW+/fJjU6vBwFoZhec5gCcQwclANTXzW/1aTntXk7+RqsYuBY6KKFBEMUAAACaEqIYNEirmeIVAAAAoOWpe9i+kNost2I7u9ocyhGuzN3eAAAArpRmOnvCtQetYgAAAAAugygGAAAA4DKIYgAAAAAugygGAAAA4DKIYgAAAAAugygGAAAA4DItJooJgRMXr9m1ftHcKZ28mKsrAwAAAHBFtJgoJhd89+DY4TO3+N4/c2Is5mIBAACAVqHFRDEiInv5mbR8uygiiQEAAEDr0KKiGAkBer2yIDtPdnVFAAAAAK6ElhXFxBB9cGVeThV3dUUAAAAAroSWFcXksuISRUB4sLplVQsAAACgebSszCOdWrXgz6DZK9ckJm7Yt2JSbMuqHQAAAEATU7i6AudRdJ747Ijs92+ZvirbgvFiAAAAcM1rWe1O3G63M2NJIXIYAAAAtAotK4pJ6alpyvDo4JZVKwAAAIBm0qJCj6AN9HYjT1+vFlUrAAAAgObSYsaKCYETP/9mVpvCA6sWf59sd3VtAAAAAK6EFhPF5ILvHhj1natrAQAAAHAloSsQAAAAwGUQxQAAAABcBlEMAAAAwGUQxQAAAABcxmXD9o8l73FV0QAAAAAtBFrFAAAAAFzGBa1iHTped+ULBQAAAGiB0CoGAAAA4DKIYgAAAAAugygGAAAA4DKIYgAAAAAugygGAAAA4DKIYgAAAAAugygGVy2m0Xcb0Cus5R7DqiEv7d6/4UDihv0/TGkvVj/IvIYv2LXhQOKGA3sW3hfl8sozn/je/dp6NLgeyrCRz81bt3Xdmic7uWyeaACAa4LLzwRXmBAc1PvuyFBPV9ejLq6qp6vKZbo+EfGjvdSsvi8QfLtN/e/X379xS0fPer+mAUS3LiPb3NBWednrtqcsub3n0B7jvzkhVT/Cy/+c3nto14Hv/GO93JU3CXVov9mLl654aXCEqgGv0t1w77N9subefuuYuUfszVY3AIDW4KqNYsx/ypDXPopUn/+o2Lfny/vHv5s0/t2k2+65WXnxqzz6tr95Vudecc2z3aqwu7YNGxpb7/N3rcs3cz1rVUe5Yreuz2zo2e7i/Xq5BHXovR16PR7mW88GFjF8wjsv31K+ZPJtTy1Jrs44zKdL3HOfjPjh5zHLFvaZ0ttd/Hdxoe/To+fd6Vn/ncl8gsbd2+meod5i3cte5XjeXx/ccfubezvM+Pixbtr6HrpM7aFTFqYeK7DIzVo7AIBW4BrrW5B27X+rTxKJHoO+HBx2ied5+S9bX/tTsBta+AnEVfV0Vbmy+cQjG84oZJutXotrrrv9nui97z31Z6r57GPuwfc+ESEv33H/ZpNnz07Pz+pe+Nj2Nfm8cfXhRWmvT8oSrfbW0eAjFe37+I3fey+6c+TSAz/Va5/xqrIK2cvTi1FOs9cOAOAa12KiGPOfMvixPiWbS73j43Q6e8nWV/dsPWzjxIIfumlau2OvPZlpIxI7d3l8nvr3EXuOW4mImNq7z3vtB/TzEPLy/p6zZ+thG5e53SqRIEkXZQnFoOtf+ihSw4jspX+O37ApteaMw1RRk7qPuUsf4sMrT+RsfT9p+yGrk7MR0/r2fanHjX11SoHs+YU73927cY+FfKLv/aNXe0cPzw+330REtsJVt/yzPY+T4NZ+ao9RtwX6a3lVSvamtxJ3H7ez2pdvmnoKuoFfD0v4e/1/v6mUiUgbesdv3SzPr1u5RyJB0/b+HqPvCAr0kMsOZvz15oED6bKz/aPUdXv2+pEjvFUlxXvXmYmcphOha4dxb3gUpIiBbS2Zm+w+A3wUm4+sn19s5cQCA7q9Ehd3vVZptxRvPL3zzYxiIxEJEe8MHTpGQUTy0RMr7zxd5njnBG3Ct/3DjqZa4gJ9QlXywdRtL6YWVjkKEaO7dXRPWr6z/JzNF3x0enX56m0VlRaq3JH8gcWHmYmY+qZXhs/o7mgOG7xyIhHJRxevf/53Exd9713YO3RPqtQuOCpEbU1O+fjjM6fMRMrgx5f1vsGdiORTy/5+8sfK6vqExr73UdCpVdbonp5B3vLxX5M+WVVq5EQkhg/tMmtSaKTacvLv7LJe4RXz//rvwaaMskzT77qEpxN8vQz5/8txn6RNH7E2u5KIuYd/endE7oHyoAjfdl6KrGOHn9hRWEJEgmbAdQmPx/uGkHn30WKPzu5rl+/5yUik0I3u1+nhNh4+osBsVX/tSHojxVjTa0q2lJ3bi8f06Kj8Kb9e/aZyZWWV1tNTIJLqXhgAAJxoMVGMiEiIUBW+svnjPPK/c8D0F9qdnHg01+kpTYj1sD32z5vPs4iHB9z3QmzKxOS82pe3b937eu99pA2/e3XsuY9rBnS9a7Jq2xPrFqXwkPHXTX43IX/c/pPm2lZDuuGdRkTlLR55OMMg+I3uNm603ndfanFp2pIBGUwVeucfcQUPbtp0mhNx2cqJyO3GzrcPs6y657fDeYqYmYOmPN/2zJTjhbUv3zT1lA1H1pfdNEzvu/REkUzqXmHtzNnfHpCIyO3GrhPGyX9OW52UoYh+pN/EV2Oz7jtRJNdarnZY17HXV628c/OhQk2np/r3YUXO3hIiYmrDqWePp708KD5/x1+zQkb9LzxkUXG6RRn5ROfo0uTf++cZ3H17ftmz74Ti1V8aOMmZL25Y8gopR3a/feKFa/LwqNwyJcWg9Oz2de/edxau/qKKOx730laVlJ0XGeS8gt2ZseNntJNW5x5MqTyzL4+IiCwbXl+9WRR7zx5+W9a2Z36slIlLdrk6wjExRCx69rljlWqfSe/0u2dw7strTdyW//GkVQuYcsDTN918QX0ErXv6/ueXm5QxcW+83XnU/i0/ZXHmHXbvA35Zn256YZvZo0f8i0Oooo7900AspGPnN2OMr36/YZsc+OK4hMLTBiMREYleugjGTuWkzNhjVQXHrbgl+sYDhT8bWWjHzm/EmN76ZeOGcnHAgN7vmAsXmomIhXSIfyag5NFvdx+2sND28a9F+YefzEg7m2bl8uIyRRtPN0bOfojU7Al1aFu9In1nFnIYAMBla1FRTD6Rl5InE1FJYnH5dE9/BeU6/YUuH8tKPGaVOWVsyCud4BWgoDwny8uy3Uqk5OefaJhvJx/V/qM7DppsROkr9n+bpatwOmBGtsiyu3tIvI8prap07f4vVjse5pJVIpI5kWyX7OeczUwbd7+x0fGnlPZPoWGkzkekQrnW5Zuonrx0Y2bW1IiOoSlbMsU2Q4Ms/+xItxKRENjFl3Yn7T9hlch66reskv/4hWqoyFhruT5tPPiBg0cy7TJVHV1XYBhU14grbpEkWSaTbDdK3CLZFYIoEJEt7ZmNaY4lzCUZe6wxEW6MDJyI22XJToL94gDAS3YUGexE9sqcRGuHKDdGjihGjDGSL6ioVP7TqztLxsUMezhmRqB0dNXBT1YUlHLikmyVyO74w3p+YymXTh0sruRE5vKjp+19A90EMknEJRuXSJIuro9cfiDRJBFJ6YXJ5dH6IEZZXPDXBvHS9TsNZpnMidlHKvRN+5Fi6gFtvVMOH9pcKcmsMt1CPqXVvcc6b51PUc4P2VaZyGq2VsiSVSYi1fXR3mnJR9aX2mWSTpZZZa+qNJmIKMBDI8jMz1sbUm7KPXH4/hMXlMS5TKzOsWK6ofM2PHuDkpuyt8974o/sFt7RDwBwNWhRUYxzkmv+4ozVeV7gEq9u4JDrtfwlCSLjUs1p3Wo4s9HgfHnD+gM/RnXqPfP6wWFaHVUdXbDrh5/KnXTaiWFhI56LT4hREidSKT1ZZmNq2fB68vysg0c7db9Bu+1nz069bUcfL3G0YIhKQT6bSCQuM0HhbGw6EwT6N/RIstzYKz2Yx01xfR4N9vEgzkn0VLM/6ny7ONXkIS5zOuf95fy8/9Y8Wlm6cen+jUvJLTzqsVe733tm44e7nI8943L1jpAT5//xSJ2bwM8uX7/Y0hQEXay3NaXYIhOR4B7tYUktdYRWFuHjbixJy+NERHLZmXu+cCyvjfWxpySZZSIiIdrPvbSkqpyIiB89cuIHz8iHhoZGeKhZZf6Ha5N+Lj03bjJ27jtdm6oNs3pvIEEdNu7lZa+OT5q0LAUNYwAAl6dFRTEmMpERcSKRMc4d5wVZ4qQQRCIbESkEUZZr+peICUxwLC/8u3xDyRJnYs1pVaWNGaCr2JFfZKr9BdaqIwt3HVlIREx3Y6/pL7Zru2rv8dpa45gqYVbPjjm7F8zIrZJJ7N7tyfcaeVFeg+spm5L/LB4xRh+U5d2uMntJcnWKkGyyoKmJUyITuGx3djLl8rmhQxQae0mnV0ivVwOrntm+fquVEwt6dtBgt0auiYhXVhh0kd4qxzHhoGobeUcH46rVheWcTJmZ/xyNnxjtLu4qb+6gIBdW5VHo9b21SdtNuq76eE+6sLXpsjCNe4TatLGCiEj08YpTGJdXj5BTRPqos7INF24fE9SiGOjtps42eYRE3R2lyNhVvYxUkffxH3lERKLuvlv7jY1y+7XU+G+rluDl522vrDDV60MkW/JziiUPD90ViaMAANe2FjWZhdA+rGucSlCoI4YG+2SVF9qJiJceLTEmRPbqqFK46zrdGqI5UZJfc/oROoR1a68SRFX4kCDv6uWJiIjbzQbyifXWakSFytE/RkwUFCpRoWKMSFCJCpUgikTES46UWntE907QKDWa8Dt63PVkuK+zsxELmDL45cVxIVpGxBQqgcn8bDQkbreY1b4RaqVKVKgE5ihWyZhCEEViavfYG/zOmy7gEss3VT2JiCo3Z6ZHhw0dG2jYmJldvXPkgkMldF1Ut1iVQuPWZkyY76nibLOzcktPV7AuYfFhoqDWdhgW4N7Ik68giCITVAIjEvUBkd1VZ9cjKAVRLYgKRkwQ1IKoEoQ6ypBSk5KN3fr28TpnOUly63FXpzv7eHgoBa/YqJs6S6ln/h2UbjZJnsE6L7WoUgmi87UzplCKKpUoMmKioFKJSoWz9i9envXVZwXBkwd9s2TI4z15bhOPFCNOnHncGOcfHxzyaO/QYJm7eWjciUjQxnhJ6aXmC3sIpZJvdxf69+z71z39Xo5Uy4LlTJmVEwk+bb59qM/9viIj0ui8YrW2U8XnzUOhjO3dz+9kYnL9LmElUvv6uJcWF6ODEgDgsrWoVjH5VIVyyg0vDPAQ8vI2zDmZLxMR2XYfXrG0x9hPxoz0kEr3p/7wemp5zfe/fLpK88CNL/TVCXl5m2qWJyLipoOLjnd8tf+Lk5UCk3M+XT9/cWXErJEP3611RM8O//vPTcSLl/39wYdF5q0Hv1vWfcwHo0b6UNXJ3M3PH3IyZp+IF608sr1rtwfXd1KL3FZQkvjunlNnT1+2wm2fFd31yujXdQKzZa+4cfsBo+XQ/AMxr3R/ctv1toKSxHWVVefmp0ssL0Q2TT2JiHhJzqEDXW/vZ9z037Kz+8a06cD/2vQY/dmY2zzkskPpK+ecLJKJqNZyDX8d/K3b9aN/vPU/xcV7/yg3NHJ6iNLcfe/59n9h0KR3JOOR7NOpNaPjFD69VveOD3OEncBb98WSZDwyefOeQ85WZt7z8/KMebOfHXpyzvp0CxERSakn536qfOju/l8/pZTLKvb+tvfLPWffF/nIquMnnu721Q9KkUm7Plj31uZae5TFuE7/fbtNkGM/XHfjDxNJzjv17CNHUmqtjJy9+eCzmw8SESn8p14f2qQNRdyY982h0Dd6dF/Yrmj5tsOLhC6zRsacXJ68X6mN1pqSyi8xoO108oE7k4mIBO82SxMMp0s5EclluUtOBD7xfzdNFchqqdp9+OD7Gf82qAl+3ae/OFa5+tV1BfV8e5lSIZI2QO+jyCi+xCg/AACoPxbX8TonT+v1+pycKzJzEPOfMnhml1Nvzq4+tQI4I/j1eOStp+4Mzfji6efOzvLqIowpFILABJ8uHV56ymfT7C2/ZDvSiWrIS1vfG6RmJJ1aPnFC9YT7zGv4/D+f6q8isp/4ZPyMr9KauGVJEAQlI6Z0H9C7+0s+GXetTMt02swbPGz2J88OoC2fPv3W+rR63wCA6Trc9dKsKf0jLb8+ORYT7gMAXAZEMbhqMU1o9+tD87fuyXJpP5nYqawkGb4AAAskSURBVPPnb8T4M24tq9j9Y9LCNWX1G3DVLJj7XeMGPhUiyJI1LSvzk80p/1Q6rwzzie8Tbzmy81QFxt8DALhEi4liAAAAAK1Pixq2DwAAANC6IIoBAAAAuAyiGAAAAIDLIIoBAAAAuAyiGAAAAIDLKMLC2zp5WpaMzhe4fLJkFET3Zi0CAAAAoGVCqxgAAACAyyCKAQAAALgMohgAAACAyyCKAQAAALgMohgAAACAyyCKAQAAALgMohhchKmDOnbrHOw4NphXbEKPSC0OFAAAgOaAMyych3m1n/jqnE9mD4rVVT+iDOp635uvzZt+nV7p0poBAABci8SYtglOnubcxoTmPQNfgSJcTOWm+Vav6SHbNlmJmOKJME2YyZYsu7palyIGj31x5siKlc+98uPuQu54zJhx6M+/s/S3Tp4QlrYpqdjm2hoCAABcW9Aq1vyClMwu83CVqCISFEIoyRl2V9fp0tSdh/4n9OhXn+3Mspz3uFSa/M2nm6XBIwb5MhdVDQAA4NqkcHUFriCVUvGAr6qvkikZmW32r4ss/9iJiA30d7/NZppdLstE3jq3xVr7tHxboah8NURRYaQYNzpWJWnclHF26wtFtjwiQRTv8lWP0rBik+2oQulXaXzDwMnxWp38q1Xorhb0gryh2Py1mXOiUKWQZ5LUSiGMKFMhBNnlHN6YcpkgjPRW3+om6BgVmW2fl1iPyOSkXCaIo7xVt7qL/oxnmawLSmwnZCf7gUgI6xijObY2sZJfvPPsqYf2lw2Kj1WsO6ddjPn2enru5O5Fa5577o8zUrO/gQAAANeeVtQqxob5qNuYLQ9nGe7IMi2xCr00gkBExCKUlG3jjg7DUCUz2uQSIlEhhMjyH6WmZRYhWLJ9VGwr04gxjIjYMD9Nb8n6WJbhZSPrpuBZturkolcygehIuenJXMNrBjbSU+FNRCREKCnXZD8jim1EClIKZJPzG1XuAF+3W5htTo5hYrZps6ic7imKzspl/X01/xHs7+VW3ZljTlaqp2gZc7YfiASdh5uprPLSXZByVWmFqNOpz2sWs5uKC4sLCqsslwhvAAAAULfW0yrGhEAFSVYWpmQ5dnlTiWmT43FBCBd5anWcYqFKlmfiEpGnUvCw2VI5Gyzw0zZOIvOW5AJOTFQMUMlriu0FnAQbryI5s7q3kYUq2Bmj7bBERFQhc4lzOxExIULBM2yy0Sa0U7IKJcu3yfZGlTtEI6/Js+dwIuIlMknEnZTLBHGghv+ZbzspEZGcYuexjDHivLb9QETEGONybamKc06MnZfEeMWRL545cvnvDQAAQKvVeqIYl9aW2QJ1qtlaFihQgcn6ZrEtk5OoEPQkb3HEKSZEKCjbJnOiUCUrsXEzE8IVcoqNPN0Frd2WSyQqBb0sp8lERAqFECjzrOpEJIQrKaOyOsnkVJjuJKKawWE77HKJlQ9Wi0VKyjbKMjWm3AgmtgvSjifiROVW2xeVslR7uaJCCCN5Q01M1Cso1yDLte8Hxz7i/IKwdQ5HkkPzFwAAQFNqPVGMKM9ofcdoJSKlUvVmsKKnaMu0k6gQAiQ5jxMRMUGIFOU9dnI0U+UaZC4oQjj/m5NeyUpsspnISyHo7PZ8TkQUphLUNluO47WMhQnyoYvG4yuVQpBdzuRUbJUDtIoYkZ+0E1GDy9UpBK3F8miBrej89ddarkLwtZ+7fn68puPxkvuBiEiuqjK5hXooiS5xWYGg8/GUqtAVCQAA0KRazVixcE/3H4JUkYyIyF8l+MlyhkRExGVuE8U4JVMIQn8vZbTFvtte3auYZeOC0jHKnoUqWY6NO0amCyrFEI3QwV11t5bZiQJExogEhRDC5ayLxq47BocVEJmtcr5aTGDVl082tFybzO0KMU4kxlhbnfpNf2WYozK1lMs52UWhg5IpBaG3l6qDzbbT5mw/EBHJWclnzB06d9ddomFMEdW5h3f60ZMXhDTNdQ89/9EDnTSNeUsAAACg9bSKZRut/7ip54apROKVNmltsTWRExHZzLZFRvX9wdoHOE81294rthUQMSaECfI2O3m6C7LdbmBCuIJn2jgRlRqtq7Sa2wPcBplti0usSj/1C57yw6WSWin4Vl8aeZ4wJcu3yjYiWZJOc1UbqXqZhpZrNFkXadT3h+geZzzPYv+p1J5FRESaWsq1mK2fm9RTgrUPE0832eYW2bKd7gfHiw5uXJn71H1Tr0/7ZFe29d+VCd4dJk8bpPj78y0l5xckBnfsGsI3FFoJAAAAGoMNHT7RydOyZBRE92atwRUoAuqPeXe468l7xgTl/vDu/J9PyUTMv/9dcx7uTnu/f+ez3VnnZy7m2feVL27OnvPy4mRMZQEAANAYraZVDOqHlx1b/tIr6+M7BVdVP2LLP/TNi78mpRsuTltieFi4NXV9KnIYAABAI6FVDAAAAMBlWs2wfQAAAICWB1EMAAAAwGUQxQAAAABcBlEMAAAAwGUQxQAAAABcRpGVecrJ03q93vkCAAAAANBoaBUDAAAAcBlEMQAAAACXQRQDAAAAcBlEMQAAAACXQRQDAAAAcBlEMQAAAACXaTFRTAicuHjNrvWL5k7p5MVcXRkAAACAK6LFRDG54LsHxw6fucX3/pkTY0VX1wYAAADgSmgxUYyIyF5+Ji3fLopIYgAAANA6tKgoRkKAXq8syM6TXV0RAAAAgCuhZUUxMUQfXJmXU8VdXREAAACAK6FlRTG5rLhEERAerG5Z1QIAAABoHi0r80inVi34M2j2yjWJiRv2rZgU27JqBwAAANDEFK6uwHkUnSc+OyL7/Vumr8q2YLwYAAAAXPNaVrsTt9vtzFhSiBwGAAAArULLimJSemqaMjw6uGXVCgAAAKCZtKjQI2gDvd3I09erRdUKAAAAoLm0mLFiQuDEz7+Z1abwwKrF3yfbXV0bAAAAgCuBxXW8zsnTer0+JyfnitUGAAAAoFVBVyAAAACAyyCKAQAAALgMohgAAACAyyCKAQAAALgMohgAAACAyyCKAQAAALgMohgAAACAyyCKAQAAALgMohgAAACAyyCKAQAAALgMohgAAACAyyCKAQAAALgMohgAAACAy9Q7igmBExev2bV+0dwpnbxYc9YIAAAAoNWodxSTC757cOzwmVt87585MVZszioBAAAAtBYN6qC0l59Jy7eLIpIYAAAAQFNo2FgxIUCvVxZk58nNVBsAAACAVqVhUUwM0QdX5uVU8WaqDQAAAECr0rAoJpcVlygCwoPVuPASAAAA4PI1LFNJp1Yt+DNo9so1iYkb9q2YFItEBgAAAHAZFA1buvPEZ0dkv3/L9FXZFowXAwAAALhMDWvX4na7nRlLCpHDAAAAAJpAAzso01PTlOHRweiYBAAAAGgCDQpVgjbQ2408fb0QxQAAAACaQL3HigmBEz//ZlabwgOrFn+fbG/OKgEAAAC0Fiyu43VOntbr9Tk5OVesNgAAAACtCroaAQAAAFwGUQwAAADAZRDFAAAAAFwGUQwAAADAZRDFAAAAAFwGUQwAAADAZRDFAAAAAFwGUQwAAADAZRDFAAAAAFwGUQwAAADAZRDFAAAAAFwGUQwAAADAZRDFAAAAAFwGUQwAAADAZRDFAAAAAFwGUQwAAADAZRDFAAAAAFwGUQwAAADAZRDFAAAAAFwGUQwAAADAZRDFAAAAAFwGUQwAAADAZRDFAAAAAFwGUQwAAADAZRDFAAAAAFwGUQwAAADAZRDFAAAAAFwGUQwAAADAZRDFAAAAAFwGUQwAAADAZRDFAAAAAFwGUQwAAADAZRDFAAAAAFzm/wFHciklV/yLBQAAAABJRU5ErkJggg==;" vertex="1" parent="1">
          <mxGeometry x="60" y="50" width="814" height="370" as="geometry" />
        </mxCell>
        <mxCell id="_2NTkBsCXPf4NS_J_TxI-2" value="1" style="ellipse;whiteSpace=wrap;html=1;aspect=fixed;" vertex="1" parent="1">
          <mxGeometry x="1210" y="220" width="80" height="80" as="geometry" />
        </mxCell>
        <mxCell id="_2NTkBsCXPf4NS_J_TxI-3" value="2" style="ellipse;whiteSpace=wrap;html=1;aspect=fixed;" vertex="1" parent="1">
          <mxGeometry x="1210" y="340" width="80" height="80" as="geometry" />
        </mxCell>
        <mxCell id="_2NTkBsCXPf4NS_J_TxI-4" value="3" style="ellipse;whiteSpace=wrap;html=1;aspect=fixed;" vertex="1" parent="1">
          <mxGeometry x="1120" y="460" width="80" height="80" as="geometry" />
        </mxCell>
        <mxCell id="_2NTkBsCXPf4NS_J_TxI-5" value="5" style="ellipse;whiteSpace=wrap;html=1;aspect=fixed;" vertex="1" parent="1">
          <mxGeometry x="1281" y="460" width="80" height="80" as="geometry" />
        </mxCell>
        <mxCell id="_2NTkBsCXPf4NS_J_TxI-6" value="4" style="ellipse;whiteSpace=wrap;html=1;aspect=fixed;" vertex="1" parent="1">
          <mxGeometry x="1120" y="605" width="80" height="80" as="geometry" />
        </mxCell>
        <mxCell id="_2NTkBsCXPf4NS_J_TxI-7" value="" style="endArrow=none;html=1;rounded=0;entryX=0.5;entryY=1;entryDx=0;entryDy=0;exitX=0.5;exitY=0;exitDx=0;exitDy=0;" edge="1" parent="1" source="_2NTkBsCXPf4NS_J_TxI-3" target="_2NTkBsCXPf4NS_J_TxI-2">
          <mxGeometry width="50" height="50" relative="1" as="geometry">
            <mxPoint x="680" y="510" as="sourcePoint" />
            <mxPoint x="730" y="460" as="targetPoint" />
          </mxGeometry>
        </mxCell>
        <mxCell id="_2NTkBsCXPf4NS_J_TxI-8" value="" style="endArrow=none;html=1;rounded=0;entryX=0.5;entryY=1;entryDx=0;entryDy=0;exitX=1;exitY=0;exitDx=0;exitDy=0;" edge="1" parent="1" source="_2NTkBsCXPf4NS_J_TxI-4" target="_2NTkBsCXPf4NS_J_TxI-3">
          <mxGeometry width="50" height="50" relative="1" as="geometry">
            <mxPoint x="680" y="510" as="sourcePoint" />
            <mxPoint x="730" y="460" as="targetPoint" />
          </mxGeometry>
        </mxCell>
        <mxCell id="_2NTkBsCXPf4NS_J_TxI-9" value="" style="endArrow=none;html=1;rounded=0;entryX=0.5;entryY=1;entryDx=0;entryDy=0;" edge="1" parent="1" source="_2NTkBsCXPf4NS_J_TxI-5" target="_2NTkBsCXPf4NS_J_TxI-3">
          <mxGeometry width="50" height="50" relative="1" as="geometry">
            <mxPoint x="680" y="510" as="sourcePoint" />
            <mxPoint x="730" y="460" as="targetPoint" />
          </mxGeometry>
        </mxCell>
        <mxCell id="_2NTkBsCXPf4NS_J_TxI-10" value="" style="endArrow=none;html=1;rounded=0;entryX=0.5;entryY=1;entryDx=0;entryDy=0;exitX=0.5;exitY=0;exitDx=0;exitDy=0;" edge="1" parent="1" source="_2NTkBsCXPf4NS_J_TxI-6" target="_2NTkBsCXPf4NS_J_TxI-4">
          <mxGeometry width="50" height="50" relative="1" as="geometry">
            <mxPoint x="680" y="510" as="sourcePoint" />
            <mxPoint x="730" y="460" as="targetPoint" />
          </mxGeometry>
        </mxCell>
        <mxCell id="_2NTkBsCXPf4NS_J_TxI-12" value="" style="curved=1;endArrow=classic;html=1;rounded=0;exitX=0;exitY=0;exitDx=0;exitDy=0;entryX=0;entryY=0.5;entryDx=0;entryDy=0;" edge="1" parent="1" source="_2NTkBsCXPf4NS_J_TxI-6" target="_2NTkBsCXPf4NS_J_TxI-3">
          <mxGeometry width="50" height="50" relative="1" as="geometry">
            <mxPoint x="640" y="490" as="sourcePoint" />
            <mxPoint x="690" y="440" as="targetPoint" />
            <Array as="points">
              <mxPoint x="1000" y="480" />
              <mxPoint x="990" y="400" />
              <mxPoint x="1010" y="390" />
            </Array>
          </mxGeometry>
        </mxCell>
        <mxCell id="_2NTkBsCXPf4NS_J_TxI-13" value="&lt;font style=&quot;font-size: 24px;&quot;&gt;a(aristas) = 5&lt;br&gt;n (nodos)= 5&lt;br&gt;r (regiones)= 2&lt;/font&gt;&lt;div&gt;&lt;font style=&quot;font-size: 24px;&quot;&gt;c (caminos)= 1&lt;/font&gt;&lt;/div&gt;" style="text;html=1;align=center;verticalAlign=middle;whiteSpace=wrap;rounded=0;" vertex="1" parent="1">
          <mxGeometry x="760" y="685" width="300" height="230" as="geometry" />
        </mxCell>
      </root>
    </mxGraphModel>
  </diagram>
</mxfile>
